G75*
%MOIN*%
%OFA0B0*%
%FSLAX24Y24*%
%IPPOS*%
%LPD*%
%AMOC8*
5,1,8,0,0,1.08239X$1,22.5*
%
%ADD10C,0.0120*%
%ADD11C,0.0110*%
%ADD12C,0.0480*%
%ADD13C,0.0551*%
%ADD14R,0.0591X0.0591*%
%ADD15C,0.0600*%
%ADD16R,0.0591X0.0512*%
%ADD17R,0.0512X0.0591*%
%ADD18R,0.0630X0.0787*%
%ADD19C,0.0705*%
%ADD20C,0.0000*%
%ADD21C,0.0320*%
%ADD22C,0.0356*%
%ADD23C,0.0160*%
D10*
X009609Y006799D02*
X009609Y030421D01*
X048979Y030421D01*
X048979Y006799D01*
X009609Y006799D01*
D11*
X023039Y008480D02*
X023235Y008480D01*
X023137Y008480D02*
X023137Y009070D01*
X023039Y009070D02*
X023235Y009070D01*
X023468Y009070D02*
X023862Y008480D01*
X023862Y009070D01*
X023468Y009070D02*
X023468Y008480D01*
X027414Y007400D02*
X027807Y007400D01*
X032289Y007953D02*
X032387Y007855D01*
X032584Y007855D01*
X032682Y007953D01*
X032682Y008150D01*
X032584Y008248D01*
X032485Y008248D01*
X032289Y008150D01*
X032289Y008445D01*
X032682Y008445D01*
X032933Y008445D02*
X032933Y008052D01*
X033130Y007855D01*
X033327Y008052D01*
X033327Y008445D01*
X032610Y007597D02*
X032610Y007203D01*
X032414Y007400D02*
X032807Y007400D01*
X034664Y007828D02*
X034762Y007730D01*
X034959Y007730D01*
X035057Y007828D01*
X035057Y008222D01*
X034959Y008320D01*
X034762Y008320D01*
X034664Y008222D01*
X034664Y007828D01*
X035308Y007828D02*
X035406Y007730D01*
X035603Y007730D01*
X035702Y007828D01*
X035702Y008320D01*
X035953Y008320D02*
X036346Y008320D01*
X036149Y008320D02*
X036149Y007730D01*
X035308Y007828D02*
X035308Y008320D01*
D12*
X034109Y012435D02*
X034109Y012915D01*
X033109Y012915D02*
X033109Y012435D01*
X032109Y012435D02*
X032109Y012915D01*
X031109Y012915D02*
X031109Y012435D01*
X030109Y012435D02*
X030109Y012915D01*
X029109Y012915D02*
X029109Y012435D01*
X028109Y012435D02*
X028109Y012915D01*
X027109Y012915D02*
X027109Y012435D01*
X027109Y015435D02*
X027109Y015915D01*
X028109Y015915D02*
X028109Y015435D01*
X029109Y015435D02*
X029109Y015915D01*
X030109Y015915D02*
X030109Y015435D01*
X031109Y015435D02*
X031109Y015915D01*
X032109Y015915D02*
X032109Y015435D01*
X033109Y015435D02*
X033109Y015915D01*
X034109Y015915D02*
X034109Y015435D01*
X040609Y016185D02*
X040609Y016665D01*
X041609Y016665D02*
X041609Y016185D01*
X042609Y016185D02*
X042609Y016665D01*
X043609Y016665D02*
X043609Y016185D01*
X044609Y016185D02*
X044609Y016665D01*
X045609Y016665D02*
X045609Y016185D01*
X046609Y016185D02*
X046609Y016665D01*
X047609Y016665D02*
X047609Y016185D01*
X047609Y019185D02*
X047609Y019665D01*
X046609Y019665D02*
X046609Y019185D01*
X045609Y019185D02*
X045609Y019665D01*
X044609Y019665D02*
X044609Y019185D01*
X043609Y019185D02*
X043609Y019665D01*
X042609Y019665D02*
X042609Y019185D01*
X041609Y019185D02*
X041609Y019665D01*
X040609Y019665D02*
X040609Y019185D01*
X040609Y020685D02*
X040609Y021165D01*
X041609Y021165D02*
X041609Y020685D01*
X042609Y020685D02*
X042609Y021165D01*
X043609Y021165D02*
X043609Y020685D01*
X044609Y020685D02*
X044609Y021165D01*
X045609Y021165D02*
X045609Y020685D01*
X046609Y020685D02*
X046609Y021165D01*
X046609Y023685D02*
X046609Y024165D01*
X045609Y024165D02*
X045609Y023685D01*
X044609Y023685D02*
X044609Y024165D01*
X043609Y024165D02*
X043609Y023685D01*
X042609Y023685D02*
X042609Y024165D01*
X041609Y024165D02*
X041609Y023685D01*
X040609Y023685D02*
X040609Y024165D01*
X039609Y024165D02*
X039609Y023685D01*
X038609Y023685D02*
X038609Y024165D01*
X038609Y021165D02*
X038609Y020685D01*
X039609Y020685D02*
X039609Y021165D01*
X032109Y024185D02*
X032109Y024665D01*
X031109Y024665D02*
X031109Y024185D01*
X030109Y024185D02*
X030109Y024665D01*
X029109Y024665D02*
X029109Y024185D01*
X028109Y024185D02*
X028109Y024665D01*
X027109Y024665D02*
X027109Y024185D01*
X026109Y024185D02*
X026109Y024665D01*
X025109Y024665D02*
X025109Y024185D01*
X021859Y024165D02*
X021859Y023685D01*
X020859Y023685D02*
X020859Y024165D01*
X019859Y024165D02*
X019859Y023685D01*
X018859Y023685D02*
X018859Y024165D01*
X017859Y024165D02*
X017859Y023685D01*
X016859Y023685D02*
X016859Y024165D01*
X015859Y024165D02*
X015859Y023685D01*
X014859Y023685D02*
X014859Y024165D01*
X013859Y024165D02*
X013859Y023685D01*
X013859Y021165D02*
X013859Y020685D01*
X014859Y020685D02*
X014859Y021165D01*
X015859Y021165D02*
X015859Y020685D01*
X016859Y020685D02*
X016859Y021165D01*
X017859Y021165D02*
X017859Y020685D01*
X018859Y020685D02*
X018859Y021165D01*
X019859Y021165D02*
X019859Y020685D01*
X020859Y020685D02*
X020859Y021165D01*
X021859Y021165D02*
X021859Y020685D01*
X021859Y019665D02*
X021859Y019185D01*
X020859Y019185D02*
X020859Y019665D01*
X019859Y019665D02*
X019859Y019185D01*
X018859Y019185D02*
X018859Y019665D01*
X017859Y019665D02*
X017859Y019185D01*
X016859Y019185D02*
X016859Y019665D01*
X015859Y019665D02*
X015859Y019185D01*
X015859Y016665D02*
X015859Y016185D01*
X016859Y016185D02*
X016859Y016665D01*
X017859Y016665D02*
X017859Y016185D01*
X018859Y016185D02*
X018859Y016665D01*
X019859Y016665D02*
X019859Y016185D01*
X020859Y016185D02*
X020859Y016665D01*
X021859Y016665D02*
X021859Y016185D01*
X022859Y016185D02*
X022859Y016665D01*
X022859Y019185D02*
X022859Y019665D01*
X025109Y027185D02*
X025109Y027665D01*
X026109Y027665D02*
X026109Y027185D01*
X027109Y027185D02*
X027109Y027665D01*
X028109Y027665D02*
X028109Y027185D01*
X029109Y027185D02*
X029109Y027665D01*
X030109Y027665D02*
X030109Y027185D01*
X031109Y027185D02*
X031109Y027665D01*
X032109Y027665D02*
X032109Y027185D01*
D13*
X038609Y027425D03*
X039609Y027425D03*
X040609Y027425D03*
X041609Y027425D03*
X042609Y027425D03*
X043609Y027425D03*
X044609Y027425D03*
X044609Y012425D03*
X043609Y012425D03*
X042609Y012425D03*
X041609Y012425D03*
X040609Y012425D03*
X039609Y012425D03*
X038609Y012425D03*
X019859Y012425D03*
X018859Y012425D03*
X017859Y012425D03*
X016859Y012425D03*
X015859Y012425D03*
X014859Y012425D03*
X013859Y012425D03*
X013859Y027425D03*
X014859Y027425D03*
X015859Y027425D03*
X016859Y027425D03*
X017859Y027425D03*
X018859Y027425D03*
X019859Y027425D03*
D14*
X029294Y022653D03*
X029294Y021653D03*
X029294Y018322D03*
X029294Y017322D03*
D15*
X021609Y008225D02*
X021609Y007625D01*
X020609Y007625D02*
X020609Y008225D01*
X019609Y008225D02*
X019609Y007625D01*
X018609Y007625D02*
X018609Y008225D01*
X017609Y008225D02*
X017609Y007625D01*
X016609Y007625D02*
X016609Y008225D01*
X015609Y008225D02*
X015609Y007625D01*
X014609Y007625D02*
X014609Y008225D01*
X037109Y008225D02*
X037109Y007625D01*
X038109Y007625D02*
X038109Y008225D01*
X039109Y008225D02*
X039109Y007625D01*
X040109Y007625D02*
X040109Y008225D01*
X041109Y008225D02*
X041109Y007625D01*
X042109Y007625D02*
X042109Y008225D01*
X043109Y008225D02*
X043109Y007625D01*
X044109Y007625D02*
X044109Y008225D01*
D16*
X038609Y019051D03*
X038609Y019799D03*
X039234Y025301D03*
X039234Y026049D03*
X040234Y026049D03*
X040234Y025301D03*
X041609Y025301D03*
X042609Y025301D03*
X042609Y026049D03*
X041609Y026049D03*
X043609Y026049D03*
X043609Y025301D03*
X023859Y021299D03*
X023859Y020551D03*
X018859Y025301D03*
X018859Y026049D03*
X017859Y026049D03*
X016859Y026049D03*
X016859Y025301D03*
X017859Y025301D03*
X015859Y025301D03*
X015859Y026049D03*
X014859Y026049D03*
X014859Y025301D03*
D17*
X037235Y015675D03*
X037983Y015675D03*
D18*
X023410Y012675D03*
X022307Y012675D03*
D19*
X029109Y008527D02*
X029109Y007822D01*
X031109Y007822D02*
X031109Y008527D01*
D20*
X046380Y008767D02*
X046382Y008817D01*
X046388Y008867D01*
X046398Y008916D01*
X046412Y008964D01*
X046429Y009011D01*
X046450Y009056D01*
X046475Y009100D01*
X046503Y009141D01*
X046535Y009180D01*
X046569Y009217D01*
X046606Y009251D01*
X046646Y009281D01*
X046688Y009308D01*
X046732Y009332D01*
X046778Y009353D01*
X046825Y009369D01*
X046873Y009382D01*
X046923Y009391D01*
X046972Y009396D01*
X047023Y009397D01*
X047073Y009394D01*
X047122Y009387D01*
X047171Y009376D01*
X047219Y009361D01*
X047265Y009343D01*
X047310Y009321D01*
X047353Y009295D01*
X047394Y009266D01*
X047433Y009234D01*
X047469Y009199D01*
X047501Y009161D01*
X047531Y009121D01*
X047558Y009078D01*
X047581Y009034D01*
X047600Y008988D01*
X047616Y008940D01*
X047628Y008891D01*
X047636Y008842D01*
X047640Y008792D01*
X047640Y008742D01*
X047636Y008692D01*
X047628Y008643D01*
X047616Y008594D01*
X047600Y008546D01*
X047581Y008500D01*
X047558Y008456D01*
X047531Y008413D01*
X047501Y008373D01*
X047469Y008335D01*
X047433Y008300D01*
X047394Y008268D01*
X047353Y008239D01*
X047310Y008213D01*
X047265Y008191D01*
X047219Y008173D01*
X047171Y008158D01*
X047122Y008147D01*
X047073Y008140D01*
X047023Y008137D01*
X046972Y008138D01*
X046923Y008143D01*
X046873Y008152D01*
X046825Y008165D01*
X046778Y008181D01*
X046732Y008202D01*
X046688Y008226D01*
X046646Y008253D01*
X046606Y008283D01*
X046569Y008317D01*
X046535Y008354D01*
X046503Y008393D01*
X046475Y008434D01*
X046450Y008478D01*
X046429Y008523D01*
X046412Y008570D01*
X046398Y008618D01*
X046388Y008667D01*
X046382Y008717D01*
X046380Y008767D01*
X046380Y028452D02*
X046382Y028502D01*
X046388Y028552D01*
X046398Y028601D01*
X046412Y028649D01*
X046429Y028696D01*
X046450Y028741D01*
X046475Y028785D01*
X046503Y028826D01*
X046535Y028865D01*
X046569Y028902D01*
X046606Y028936D01*
X046646Y028966D01*
X046688Y028993D01*
X046732Y029017D01*
X046778Y029038D01*
X046825Y029054D01*
X046873Y029067D01*
X046923Y029076D01*
X046972Y029081D01*
X047023Y029082D01*
X047073Y029079D01*
X047122Y029072D01*
X047171Y029061D01*
X047219Y029046D01*
X047265Y029028D01*
X047310Y029006D01*
X047353Y028980D01*
X047394Y028951D01*
X047433Y028919D01*
X047469Y028884D01*
X047501Y028846D01*
X047531Y028806D01*
X047558Y028763D01*
X047581Y028719D01*
X047600Y028673D01*
X047616Y028625D01*
X047628Y028576D01*
X047636Y028527D01*
X047640Y028477D01*
X047640Y028427D01*
X047636Y028377D01*
X047628Y028328D01*
X047616Y028279D01*
X047600Y028231D01*
X047581Y028185D01*
X047558Y028141D01*
X047531Y028098D01*
X047501Y028058D01*
X047469Y028020D01*
X047433Y027985D01*
X047394Y027953D01*
X047353Y027924D01*
X047310Y027898D01*
X047265Y027876D01*
X047219Y027858D01*
X047171Y027843D01*
X047122Y027832D01*
X047073Y027825D01*
X047023Y027822D01*
X046972Y027823D01*
X046923Y027828D01*
X046873Y027837D01*
X046825Y027850D01*
X046778Y027866D01*
X046732Y027887D01*
X046688Y027911D01*
X046646Y027938D01*
X046606Y027968D01*
X046569Y028002D01*
X046535Y028039D01*
X046503Y028078D01*
X046475Y028119D01*
X046450Y028163D01*
X046429Y028208D01*
X046412Y028255D01*
X046398Y028303D01*
X046388Y028352D01*
X046382Y028402D01*
X046380Y028452D01*
X010947Y028452D02*
X010949Y028502D01*
X010955Y028552D01*
X010965Y028601D01*
X010979Y028649D01*
X010996Y028696D01*
X011017Y028741D01*
X011042Y028785D01*
X011070Y028826D01*
X011102Y028865D01*
X011136Y028902D01*
X011173Y028936D01*
X011213Y028966D01*
X011255Y028993D01*
X011299Y029017D01*
X011345Y029038D01*
X011392Y029054D01*
X011440Y029067D01*
X011490Y029076D01*
X011539Y029081D01*
X011590Y029082D01*
X011640Y029079D01*
X011689Y029072D01*
X011738Y029061D01*
X011786Y029046D01*
X011832Y029028D01*
X011877Y029006D01*
X011920Y028980D01*
X011961Y028951D01*
X012000Y028919D01*
X012036Y028884D01*
X012068Y028846D01*
X012098Y028806D01*
X012125Y028763D01*
X012148Y028719D01*
X012167Y028673D01*
X012183Y028625D01*
X012195Y028576D01*
X012203Y028527D01*
X012207Y028477D01*
X012207Y028427D01*
X012203Y028377D01*
X012195Y028328D01*
X012183Y028279D01*
X012167Y028231D01*
X012148Y028185D01*
X012125Y028141D01*
X012098Y028098D01*
X012068Y028058D01*
X012036Y028020D01*
X012000Y027985D01*
X011961Y027953D01*
X011920Y027924D01*
X011877Y027898D01*
X011832Y027876D01*
X011786Y027858D01*
X011738Y027843D01*
X011689Y027832D01*
X011640Y027825D01*
X011590Y027822D01*
X011539Y027823D01*
X011490Y027828D01*
X011440Y027837D01*
X011392Y027850D01*
X011345Y027866D01*
X011299Y027887D01*
X011255Y027911D01*
X011213Y027938D01*
X011173Y027968D01*
X011136Y028002D01*
X011102Y028039D01*
X011070Y028078D01*
X011042Y028119D01*
X011017Y028163D01*
X010996Y028208D01*
X010979Y028255D01*
X010965Y028303D01*
X010955Y028352D01*
X010949Y028402D01*
X010947Y028452D01*
X010947Y008767D02*
X010949Y008817D01*
X010955Y008867D01*
X010965Y008916D01*
X010979Y008964D01*
X010996Y009011D01*
X011017Y009056D01*
X011042Y009100D01*
X011070Y009141D01*
X011102Y009180D01*
X011136Y009217D01*
X011173Y009251D01*
X011213Y009281D01*
X011255Y009308D01*
X011299Y009332D01*
X011345Y009353D01*
X011392Y009369D01*
X011440Y009382D01*
X011490Y009391D01*
X011539Y009396D01*
X011590Y009397D01*
X011640Y009394D01*
X011689Y009387D01*
X011738Y009376D01*
X011786Y009361D01*
X011832Y009343D01*
X011877Y009321D01*
X011920Y009295D01*
X011961Y009266D01*
X012000Y009234D01*
X012036Y009199D01*
X012068Y009161D01*
X012098Y009121D01*
X012125Y009078D01*
X012148Y009034D01*
X012167Y008988D01*
X012183Y008940D01*
X012195Y008891D01*
X012203Y008842D01*
X012207Y008792D01*
X012207Y008742D01*
X012203Y008692D01*
X012195Y008643D01*
X012183Y008594D01*
X012167Y008546D01*
X012148Y008500D01*
X012125Y008456D01*
X012098Y008413D01*
X012068Y008373D01*
X012036Y008335D01*
X012000Y008300D01*
X011961Y008268D01*
X011920Y008239D01*
X011877Y008213D01*
X011832Y008191D01*
X011786Y008173D01*
X011738Y008158D01*
X011689Y008147D01*
X011640Y008140D01*
X011590Y008137D01*
X011539Y008138D01*
X011490Y008143D01*
X011440Y008152D01*
X011392Y008165D01*
X011345Y008181D01*
X011299Y008202D01*
X011255Y008226D01*
X011213Y008253D01*
X011173Y008283D01*
X011136Y008317D01*
X011102Y008354D01*
X011070Y008393D01*
X011042Y008434D01*
X011017Y008478D01*
X010996Y008523D01*
X010979Y008570D01*
X010965Y008618D01*
X010955Y008667D01*
X010949Y008717D01*
X010947Y008767D01*
D21*
X024359Y012425D02*
X025859Y012425D01*
X025859Y009175D02*
X030359Y009175D01*
X031109Y008425D01*
X031109Y008175D01*
X036359Y009175D02*
X044109Y009175D01*
X044109Y007925D01*
X040359Y015675D02*
X037983Y015675D01*
X037235Y015675D02*
X036359Y015675D01*
X040359Y015675D02*
X040609Y015925D01*
X040609Y016425D01*
X038609Y018425D02*
X038609Y019051D01*
X038609Y019799D02*
X038609Y020925D01*
X025859Y021800D02*
X023859Y021800D01*
X023859Y021299D01*
X023859Y021800D02*
X023859Y023425D01*
X023859Y020551D02*
X023859Y019425D01*
X024359Y017675D02*
X025859Y017675D01*
D22*
X025859Y017675D03*
X026359Y017175D03*
X026484Y016550D03*
X024359Y017675D03*
X023859Y019425D03*
X025859Y021800D03*
X026484Y022425D03*
X023859Y023425D03*
X018859Y026675D03*
X016984Y028550D03*
X018359Y028925D03*
X020359Y028925D03*
X021859Y029300D03*
X026109Y028925D03*
X028109Y029300D03*
X029109Y028550D03*
X015859Y026675D03*
X013234Y026675D03*
X019859Y013925D03*
X021359Y012675D03*
X022609Y011550D03*
X024359Y012425D03*
X025859Y012425D03*
X029109Y011550D03*
X030109Y010800D03*
X031109Y010425D03*
X032109Y011175D03*
X035109Y013925D03*
X034609Y014425D03*
X033609Y014925D03*
X036109Y014425D03*
X036109Y013925D03*
X038609Y014425D03*
X040609Y014425D03*
X042109Y014925D03*
X043609Y014925D03*
X044109Y011550D03*
X043109Y011550D03*
X042109Y011550D03*
X040109Y011175D03*
X039109Y010050D03*
X038109Y010425D03*
X037109Y010800D03*
X036359Y009175D03*
X041109Y009675D03*
X043609Y009675D03*
X044109Y010800D03*
X036359Y015675D03*
X038609Y018425D03*
X025859Y009175D03*
X020359Y010050D03*
X019359Y010425D03*
X018359Y010800D03*
X016484Y011175D03*
D23*
X032109Y011175D01*
X040109Y011175D01*
X039609Y012425D02*
X039609Y013425D01*
X035609Y013425D01*
X014859Y013425D01*
X014859Y012425D01*
X015109Y011675D02*
X013734Y011675D01*
X013234Y012175D01*
X013234Y026675D01*
X012859Y027175D02*
X012859Y011925D01*
X013484Y011300D01*
X015484Y011300D01*
X015984Y011800D01*
X018234Y011800D01*
X018859Y012425D01*
X019859Y013925D02*
X035109Y013925D01*
X035109Y023425D01*
X031109Y027425D01*
X030109Y027425D02*
X034609Y022925D01*
X034609Y014425D01*
X013859Y014425D01*
X013859Y012425D01*
X015109Y011675D02*
X015859Y012425D01*
X016234Y010800D02*
X018359Y010800D01*
X030109Y010800D01*
X037109Y010800D01*
X042359Y010800D01*
X043109Y011550D01*
X044109Y011550D02*
X042984Y010425D01*
X038109Y010425D01*
X031109Y010425D01*
X019359Y010425D01*
X016609Y010425D01*
X015609Y009425D01*
X015609Y007925D01*
X016609Y007925D02*
X016609Y009425D01*
X017234Y010050D01*
X020359Y010050D01*
X039109Y010050D01*
X043359Y010050D01*
X044109Y010800D01*
X043609Y009675D02*
X041109Y009675D01*
X042109Y011550D02*
X029109Y011550D01*
X022609Y011550D01*
X022307Y012675D02*
X021359Y012675D01*
X021359Y011925D01*
X033109Y011925D01*
X033109Y012675D01*
X033109Y011925D02*
X044859Y011925D01*
X046609Y013675D01*
X046609Y016425D01*
X044109Y015425D02*
X044109Y024675D01*
X044234Y024800D01*
X044234Y026050D01*
X043735Y026050D01*
X043735Y026049D01*
X043609Y026049D01*
X043609Y025301D02*
X043609Y023925D01*
X042609Y023925D02*
X042609Y025301D01*
X041609Y025301D02*
X041609Y023925D01*
X041109Y024675D02*
X040984Y024800D01*
X040984Y025925D01*
X040859Y026050D01*
X040235Y026050D01*
X040234Y026049D01*
X040234Y025301D02*
X040234Y024925D01*
X040609Y024550D01*
X040609Y023925D01*
X041109Y024675D02*
X041109Y018175D01*
X042109Y017175D01*
X042109Y015925D01*
X040609Y014425D01*
X042109Y014925D02*
X042609Y015425D01*
X042609Y016425D01*
X041609Y016425D02*
X041609Y016675D01*
X039609Y018675D01*
X039609Y020925D01*
X040609Y020925D02*
X040609Y019425D01*
X041609Y019425D02*
X041609Y020925D01*
X042609Y020925D02*
X042609Y019425D01*
X043609Y019425D02*
X043609Y020925D01*
X039609Y023925D02*
X039609Y024550D01*
X039234Y024925D01*
X039234Y025301D01*
X039234Y026049D02*
X039234Y026550D01*
X039609Y026925D01*
X039609Y027425D01*
X040609Y027425D02*
X039484Y028550D01*
X029109Y028550D01*
X016984Y028550D01*
X018359Y028925D02*
X014609Y028925D01*
X012859Y027175D01*
X013859Y027425D02*
X014609Y028175D01*
X027109Y028175D01*
X037859Y028175D01*
X038609Y027425D01*
X041609Y027425D02*
X041609Y026049D01*
X041577Y026049D01*
X042577Y026049D02*
X042609Y026049D01*
X042609Y027425D01*
X043609Y027425D02*
X042109Y028925D01*
X026109Y028925D01*
X020359Y028925D01*
X021859Y029300D02*
X028109Y029300D01*
X042734Y029300D01*
X044609Y027425D01*
X035609Y023925D02*
X035609Y013425D01*
X036109Y013925D02*
X044609Y013925D01*
X044609Y012425D01*
X043609Y014925D02*
X044109Y015425D01*
X038609Y014425D02*
X036109Y014425D01*
X033609Y014925D02*
X023609Y014925D01*
X022859Y015675D01*
X022859Y016425D01*
X023609Y017175D02*
X026359Y017175D01*
X026984Y017050D02*
X026484Y016550D01*
X027109Y016425D02*
X027109Y015675D01*
X027109Y016425D02*
X027359Y016675D01*
X027359Y023425D01*
X027109Y023675D01*
X027109Y024425D01*
X026109Y024425D02*
X026109Y023675D01*
X026984Y022800D01*
X026984Y017050D01*
X027734Y016675D02*
X028109Y016300D01*
X028109Y015675D01*
X029109Y015675D02*
X029109Y016175D01*
X030109Y017175D01*
X030109Y022925D01*
X029109Y023925D01*
X029109Y024425D01*
X030109Y024425D02*
X030109Y023675D01*
X030609Y023175D01*
X030609Y016925D01*
X030109Y016425D01*
X030109Y015675D01*
X031109Y015675D02*
X031109Y024425D01*
X032109Y024425D02*
X032109Y015675D01*
X029294Y018322D02*
X029294Y021653D01*
X027734Y023425D02*
X027734Y016675D01*
X023609Y017175D02*
X022359Y018425D01*
X022359Y020425D01*
X021859Y020925D01*
X018859Y020925D02*
X018859Y019425D01*
X017859Y019425D02*
X017859Y020925D01*
X016859Y020925D02*
X016859Y019425D01*
X015859Y019425D02*
X015859Y020925D01*
X014859Y020925D02*
X014859Y018675D01*
X016859Y016675D01*
X016859Y016425D01*
X023410Y012675D02*
X024109Y012675D01*
X024359Y012425D01*
X016234Y010800D02*
X014609Y009175D01*
X014609Y007925D01*
X025859Y022425D02*
X026484Y022425D01*
X025859Y022425D02*
X024359Y023925D01*
X021859Y023925D01*
X018859Y023925D02*
X018859Y025301D01*
X018859Y026049D02*
X018859Y026675D01*
X017859Y026049D02*
X017859Y027425D01*
X016859Y027425D02*
X016859Y026049D01*
X016859Y025301D02*
X016859Y023925D01*
X017859Y023925D02*
X017859Y025301D01*
X015859Y025301D02*
X015859Y023925D01*
X014859Y023925D02*
X014859Y025301D01*
X014859Y026049D02*
X014859Y027425D01*
X015859Y026675D02*
X015859Y026049D01*
X027109Y027425D02*
X027109Y028175D01*
X032109Y027425D02*
X035609Y023925D01*
X028109Y023800D02*
X027734Y023425D01*
X028109Y023800D02*
X028109Y024425D01*
M02*
