G75*
%MOIN*%
%OFA0B0*%
%FSLAX24Y24*%
%IPPOS*%
%LPD*%
%AMOC8*
5,1,8,0,0,1.08239X$1,22.5*
%
%ADD10C,0.0120*%
%ADD11C,0.0060*%
%ADD12C,0.0050*%
%ADD13C,0.0040*%
%ADD14C,0.0000*%
D10*
X009609Y006799D02*
X009609Y030421D01*
X048979Y030421D01*
X048979Y006799D01*
X009609Y006799D01*
D11*
X015359Y016775D02*
X015359Y017525D01*
X015398Y017527D01*
X015437Y017533D01*
X015475Y017542D01*
X015512Y017555D01*
X015548Y017572D01*
X015581Y017592D01*
X015613Y017616D01*
X015642Y017642D01*
X015668Y017671D01*
X015692Y017703D01*
X015712Y017736D01*
X015729Y017772D01*
X015742Y017809D01*
X015751Y017847D01*
X015757Y017886D01*
X015759Y017925D01*
X015757Y017964D01*
X015751Y018003D01*
X015742Y018041D01*
X015729Y018078D01*
X015712Y018114D01*
X015692Y018147D01*
X015668Y018179D01*
X015642Y018208D01*
X015613Y018234D01*
X015581Y018258D01*
X015548Y018278D01*
X015512Y018295D01*
X015475Y018308D01*
X015437Y018317D01*
X015398Y018323D01*
X015359Y018325D01*
X015359Y019075D01*
X023359Y019075D01*
X023359Y016775D01*
X015359Y016775D01*
X013359Y021275D02*
X013359Y023575D01*
X022359Y023575D01*
X022359Y022825D01*
X022320Y022823D01*
X022281Y022817D01*
X022243Y022808D01*
X022206Y022795D01*
X022170Y022778D01*
X022137Y022758D01*
X022105Y022734D01*
X022076Y022708D01*
X022050Y022679D01*
X022026Y022647D01*
X022006Y022614D01*
X021989Y022578D01*
X021976Y022541D01*
X021967Y022503D01*
X021961Y022464D01*
X021959Y022425D01*
X021961Y022386D01*
X021967Y022347D01*
X021976Y022309D01*
X021989Y022272D01*
X022006Y022236D01*
X022026Y022203D01*
X022050Y022171D01*
X022076Y022142D01*
X022105Y022116D01*
X022137Y022092D01*
X022170Y022072D01*
X022206Y022055D01*
X022243Y022042D01*
X022281Y022033D01*
X022320Y022027D01*
X022359Y022025D01*
X022359Y021275D01*
X013359Y021275D01*
X024609Y024775D02*
X024609Y027075D01*
X032609Y027075D01*
X032609Y026325D01*
X032570Y026323D01*
X032531Y026317D01*
X032493Y026308D01*
X032456Y026295D01*
X032420Y026278D01*
X032387Y026258D01*
X032355Y026234D01*
X032326Y026208D01*
X032300Y026179D01*
X032276Y026147D01*
X032256Y026114D01*
X032239Y026078D01*
X032226Y026041D01*
X032217Y026003D01*
X032211Y025964D01*
X032209Y025925D01*
X032211Y025886D01*
X032217Y025847D01*
X032226Y025809D01*
X032239Y025772D01*
X032256Y025736D01*
X032276Y025703D01*
X032300Y025671D01*
X032326Y025642D01*
X032355Y025616D01*
X032387Y025592D01*
X032420Y025572D01*
X032456Y025555D01*
X032493Y025542D01*
X032531Y025533D01*
X032570Y025527D01*
X032609Y025525D01*
X032609Y024775D01*
X024609Y024775D01*
X038109Y023575D02*
X038109Y021275D01*
X047109Y021275D01*
X047109Y022025D01*
X047070Y022027D01*
X047031Y022033D01*
X046993Y022042D01*
X046956Y022055D01*
X046920Y022072D01*
X046887Y022092D01*
X046855Y022116D01*
X046826Y022142D01*
X046800Y022171D01*
X046776Y022203D01*
X046756Y022236D01*
X046739Y022272D01*
X046726Y022309D01*
X046717Y022347D01*
X046711Y022386D01*
X046709Y022425D01*
X046711Y022464D01*
X046717Y022503D01*
X046726Y022541D01*
X046739Y022578D01*
X046756Y022614D01*
X046776Y022647D01*
X046800Y022679D01*
X046826Y022708D01*
X046855Y022734D01*
X046887Y022758D01*
X046920Y022778D01*
X046956Y022795D01*
X046993Y022808D01*
X047031Y022817D01*
X047070Y022823D01*
X047109Y022825D01*
X047109Y023575D01*
X038109Y023575D01*
X040109Y019075D02*
X040109Y018325D01*
X040148Y018323D01*
X040187Y018317D01*
X040225Y018308D01*
X040262Y018295D01*
X040298Y018278D01*
X040331Y018258D01*
X040363Y018234D01*
X040392Y018208D01*
X040418Y018179D01*
X040442Y018147D01*
X040462Y018114D01*
X040479Y018078D01*
X040492Y018041D01*
X040501Y018003D01*
X040507Y017964D01*
X040509Y017925D01*
X040507Y017886D01*
X040501Y017847D01*
X040492Y017809D01*
X040479Y017772D01*
X040462Y017736D01*
X040442Y017703D01*
X040418Y017671D01*
X040392Y017642D01*
X040363Y017616D01*
X040331Y017592D01*
X040298Y017572D01*
X040262Y017555D01*
X040225Y017542D01*
X040187Y017533D01*
X040148Y017527D01*
X040109Y017525D01*
X040109Y016775D01*
X048109Y016775D01*
X048109Y019075D01*
X040109Y019075D01*
X034609Y015325D02*
X034609Y013025D01*
X026609Y013025D01*
X026609Y013775D01*
X026648Y013777D01*
X026687Y013783D01*
X026725Y013792D01*
X026762Y013805D01*
X026798Y013822D01*
X026831Y013842D01*
X026863Y013866D01*
X026892Y013892D01*
X026918Y013921D01*
X026942Y013953D01*
X026962Y013986D01*
X026979Y014022D01*
X026992Y014059D01*
X027001Y014097D01*
X027007Y014136D01*
X027009Y014175D01*
X027007Y014214D01*
X027001Y014253D01*
X026992Y014291D01*
X026979Y014328D01*
X026962Y014364D01*
X026942Y014397D01*
X026918Y014429D01*
X026892Y014458D01*
X026863Y014484D01*
X026831Y014508D01*
X026798Y014528D01*
X026762Y014545D01*
X026725Y014558D01*
X026687Y014567D01*
X026648Y014573D01*
X026609Y014575D01*
X026609Y015325D01*
X034609Y015325D01*
D12*
X039484Y017872D02*
X039484Y018022D01*
X039484Y017947D02*
X039934Y017947D01*
X039934Y017872D02*
X039934Y018022D01*
X039859Y018179D02*
X039559Y018179D01*
X039484Y018254D01*
X039484Y018404D01*
X039559Y018479D01*
X039709Y018639D02*
X039709Y018940D01*
X039484Y018865D02*
X039934Y018865D01*
X039709Y018639D01*
X039859Y018479D02*
X039934Y018404D01*
X039934Y018254D01*
X039859Y018179D01*
X047234Y021250D02*
X047234Y021400D01*
X047234Y021325D02*
X047684Y021325D01*
X047684Y021250D02*
X047684Y021400D01*
X047609Y021557D02*
X047309Y021557D01*
X047234Y021632D01*
X047234Y021782D01*
X047309Y021857D01*
X047234Y022017D02*
X047234Y022317D01*
X047234Y022167D02*
X047684Y022167D01*
X047534Y022017D01*
X047609Y021857D02*
X047684Y021782D01*
X047684Y021632D01*
X047609Y021557D01*
X033234Y024800D02*
X033234Y024950D01*
X033234Y024875D02*
X032784Y024875D01*
X032784Y024800D02*
X032784Y024950D01*
X032859Y025107D02*
X032784Y025182D01*
X032784Y025332D01*
X032859Y025407D01*
X032784Y025567D02*
X032784Y025867D01*
X032784Y026028D02*
X032784Y026328D01*
X032784Y026178D02*
X033234Y026178D01*
X033084Y026028D01*
X033234Y025567D02*
X032784Y025567D01*
X033159Y025407D02*
X033234Y025332D01*
X033234Y025182D01*
X033159Y025107D01*
X032859Y025107D01*
X022934Y022242D02*
X022934Y022092D01*
X022859Y022017D01*
X022859Y021857D02*
X022934Y021782D01*
X022934Y021632D01*
X022859Y021557D01*
X022559Y021557D01*
X022484Y021632D01*
X022484Y021782D01*
X022559Y021857D01*
X022484Y022017D02*
X022784Y022317D01*
X022859Y022317D01*
X022934Y022242D01*
X022484Y022317D02*
X022484Y022017D01*
X022484Y021400D02*
X022484Y021250D01*
X022484Y021325D02*
X022934Y021325D01*
X022934Y021250D02*
X022934Y021400D01*
X015184Y018940D02*
X015184Y018639D01*
X014959Y018639D01*
X015034Y018790D01*
X015034Y018865D01*
X014959Y018940D01*
X014809Y018940D01*
X014734Y018865D01*
X014734Y018714D01*
X014809Y018639D01*
X014809Y018479D02*
X014734Y018404D01*
X014734Y018254D01*
X014809Y018179D01*
X015109Y018179D01*
X015184Y018254D01*
X015184Y018404D01*
X015109Y018479D01*
X015184Y018022D02*
X015184Y017872D01*
X015184Y017947D02*
X014734Y017947D01*
X014734Y017872D02*
X014734Y018022D01*
X025984Y015115D02*
X025984Y014964D01*
X026059Y014889D01*
X026059Y014729D02*
X025984Y014654D01*
X025984Y014504D01*
X026059Y014429D01*
X026359Y014429D01*
X026434Y014504D01*
X026434Y014654D01*
X026359Y014729D01*
X026359Y014889D02*
X026434Y014964D01*
X026434Y015115D01*
X026359Y015190D01*
X026284Y015190D01*
X026209Y015115D01*
X026134Y015190D01*
X026059Y015190D01*
X025984Y015115D01*
X026209Y015115D02*
X026209Y015040D01*
X026434Y014272D02*
X026434Y014122D01*
X026434Y014197D02*
X025984Y014197D01*
X025984Y014122D02*
X025984Y014272D01*
D13*
X029254Y019445D02*
X029714Y019445D01*
X029714Y019675D01*
X029637Y019752D01*
X029484Y019752D01*
X029407Y019675D01*
X029407Y019445D01*
X029407Y019598D02*
X029254Y019752D01*
X029254Y019905D02*
X029254Y020212D01*
X029254Y020059D02*
X029714Y020059D01*
X029560Y019905D01*
D14*
X046380Y028452D02*
X046382Y028502D01*
X046388Y028552D01*
X046398Y028601D01*
X046412Y028649D01*
X046429Y028696D01*
X046450Y028741D01*
X046475Y028785D01*
X046503Y028826D01*
X046535Y028865D01*
X046569Y028902D01*
X046606Y028936D01*
X046646Y028966D01*
X046688Y028993D01*
X046732Y029017D01*
X046778Y029038D01*
X046825Y029054D01*
X046873Y029067D01*
X046923Y029076D01*
X046972Y029081D01*
X047023Y029082D01*
X047073Y029079D01*
X047122Y029072D01*
X047171Y029061D01*
X047219Y029046D01*
X047265Y029028D01*
X047310Y029006D01*
X047353Y028980D01*
X047394Y028951D01*
X047433Y028919D01*
X047469Y028884D01*
X047501Y028846D01*
X047531Y028806D01*
X047558Y028763D01*
X047581Y028719D01*
X047600Y028673D01*
X047616Y028625D01*
X047628Y028576D01*
X047636Y028527D01*
X047640Y028477D01*
X047640Y028427D01*
X047636Y028377D01*
X047628Y028328D01*
X047616Y028279D01*
X047600Y028231D01*
X047581Y028185D01*
X047558Y028141D01*
X047531Y028098D01*
X047501Y028058D01*
X047469Y028020D01*
X047433Y027985D01*
X047394Y027953D01*
X047353Y027924D01*
X047310Y027898D01*
X047265Y027876D01*
X047219Y027858D01*
X047171Y027843D01*
X047122Y027832D01*
X047073Y027825D01*
X047023Y027822D01*
X046972Y027823D01*
X046923Y027828D01*
X046873Y027837D01*
X046825Y027850D01*
X046778Y027866D01*
X046732Y027887D01*
X046688Y027911D01*
X046646Y027938D01*
X046606Y027968D01*
X046569Y028002D01*
X046535Y028039D01*
X046503Y028078D01*
X046475Y028119D01*
X046450Y028163D01*
X046429Y028208D01*
X046412Y028255D01*
X046398Y028303D01*
X046388Y028352D01*
X046382Y028402D01*
X046380Y028452D01*
X046380Y008767D02*
X046382Y008817D01*
X046388Y008867D01*
X046398Y008916D01*
X046412Y008964D01*
X046429Y009011D01*
X046450Y009056D01*
X046475Y009100D01*
X046503Y009141D01*
X046535Y009180D01*
X046569Y009217D01*
X046606Y009251D01*
X046646Y009281D01*
X046688Y009308D01*
X046732Y009332D01*
X046778Y009353D01*
X046825Y009369D01*
X046873Y009382D01*
X046923Y009391D01*
X046972Y009396D01*
X047023Y009397D01*
X047073Y009394D01*
X047122Y009387D01*
X047171Y009376D01*
X047219Y009361D01*
X047265Y009343D01*
X047310Y009321D01*
X047353Y009295D01*
X047394Y009266D01*
X047433Y009234D01*
X047469Y009199D01*
X047501Y009161D01*
X047531Y009121D01*
X047558Y009078D01*
X047581Y009034D01*
X047600Y008988D01*
X047616Y008940D01*
X047628Y008891D01*
X047636Y008842D01*
X047640Y008792D01*
X047640Y008742D01*
X047636Y008692D01*
X047628Y008643D01*
X047616Y008594D01*
X047600Y008546D01*
X047581Y008500D01*
X047558Y008456D01*
X047531Y008413D01*
X047501Y008373D01*
X047469Y008335D01*
X047433Y008300D01*
X047394Y008268D01*
X047353Y008239D01*
X047310Y008213D01*
X047265Y008191D01*
X047219Y008173D01*
X047171Y008158D01*
X047122Y008147D01*
X047073Y008140D01*
X047023Y008137D01*
X046972Y008138D01*
X046923Y008143D01*
X046873Y008152D01*
X046825Y008165D01*
X046778Y008181D01*
X046732Y008202D01*
X046688Y008226D01*
X046646Y008253D01*
X046606Y008283D01*
X046569Y008317D01*
X046535Y008354D01*
X046503Y008393D01*
X046475Y008434D01*
X046450Y008478D01*
X046429Y008523D01*
X046412Y008570D01*
X046398Y008618D01*
X046388Y008667D01*
X046382Y008717D01*
X046380Y008767D01*
X010947Y008767D02*
X010949Y008817D01*
X010955Y008867D01*
X010965Y008916D01*
X010979Y008964D01*
X010996Y009011D01*
X011017Y009056D01*
X011042Y009100D01*
X011070Y009141D01*
X011102Y009180D01*
X011136Y009217D01*
X011173Y009251D01*
X011213Y009281D01*
X011255Y009308D01*
X011299Y009332D01*
X011345Y009353D01*
X011392Y009369D01*
X011440Y009382D01*
X011490Y009391D01*
X011539Y009396D01*
X011590Y009397D01*
X011640Y009394D01*
X011689Y009387D01*
X011738Y009376D01*
X011786Y009361D01*
X011832Y009343D01*
X011877Y009321D01*
X011920Y009295D01*
X011961Y009266D01*
X012000Y009234D01*
X012036Y009199D01*
X012068Y009161D01*
X012098Y009121D01*
X012125Y009078D01*
X012148Y009034D01*
X012167Y008988D01*
X012183Y008940D01*
X012195Y008891D01*
X012203Y008842D01*
X012207Y008792D01*
X012207Y008742D01*
X012203Y008692D01*
X012195Y008643D01*
X012183Y008594D01*
X012167Y008546D01*
X012148Y008500D01*
X012125Y008456D01*
X012098Y008413D01*
X012068Y008373D01*
X012036Y008335D01*
X012000Y008300D01*
X011961Y008268D01*
X011920Y008239D01*
X011877Y008213D01*
X011832Y008191D01*
X011786Y008173D01*
X011738Y008158D01*
X011689Y008147D01*
X011640Y008140D01*
X011590Y008137D01*
X011539Y008138D01*
X011490Y008143D01*
X011440Y008152D01*
X011392Y008165D01*
X011345Y008181D01*
X011299Y008202D01*
X011255Y008226D01*
X011213Y008253D01*
X011173Y008283D01*
X011136Y008317D01*
X011102Y008354D01*
X011070Y008393D01*
X011042Y008434D01*
X011017Y008478D01*
X010996Y008523D01*
X010979Y008570D01*
X010965Y008618D01*
X010955Y008667D01*
X010949Y008717D01*
X010947Y008767D01*
X010947Y028452D02*
X010949Y028502D01*
X010955Y028552D01*
X010965Y028601D01*
X010979Y028649D01*
X010996Y028696D01*
X011017Y028741D01*
X011042Y028785D01*
X011070Y028826D01*
X011102Y028865D01*
X011136Y028902D01*
X011173Y028936D01*
X011213Y028966D01*
X011255Y028993D01*
X011299Y029017D01*
X011345Y029038D01*
X011392Y029054D01*
X011440Y029067D01*
X011490Y029076D01*
X011539Y029081D01*
X011590Y029082D01*
X011640Y029079D01*
X011689Y029072D01*
X011738Y029061D01*
X011786Y029046D01*
X011832Y029028D01*
X011877Y029006D01*
X011920Y028980D01*
X011961Y028951D01*
X012000Y028919D01*
X012036Y028884D01*
X012068Y028846D01*
X012098Y028806D01*
X012125Y028763D01*
X012148Y028719D01*
X012167Y028673D01*
X012183Y028625D01*
X012195Y028576D01*
X012203Y028527D01*
X012207Y028477D01*
X012207Y028427D01*
X012203Y028377D01*
X012195Y028328D01*
X012183Y028279D01*
X012167Y028231D01*
X012148Y028185D01*
X012125Y028141D01*
X012098Y028098D01*
X012068Y028058D01*
X012036Y028020D01*
X012000Y027985D01*
X011961Y027953D01*
X011920Y027924D01*
X011877Y027898D01*
X011832Y027876D01*
X011786Y027858D01*
X011738Y027843D01*
X011689Y027832D01*
X011640Y027825D01*
X011590Y027822D01*
X011539Y027823D01*
X011490Y027828D01*
X011440Y027837D01*
X011392Y027850D01*
X011345Y027866D01*
X011299Y027887D01*
X011255Y027911D01*
X011213Y027938D01*
X011173Y027968D01*
X011136Y028002D01*
X011102Y028039D01*
X011070Y028078D01*
X011042Y028119D01*
X011017Y028163D01*
X010996Y028208D01*
X010979Y028255D01*
X010965Y028303D01*
X010955Y028352D01*
X010949Y028402D01*
X010947Y028452D01*
M02*
