G75*
%MOIN*%
%OFA0B0*%
%FSLAX24Y24*%
%IPPOS*%
%LPD*%
%AMOC8*
5,1,8,0,0,1.08239X$1,22.5*
%
%ADD10C,0.0120*%
%ADD11C,0.0480*%
%ADD12C,0.0551*%
%ADD13R,0.0591X0.0591*%
%ADD14R,0.0709X0.0630*%
%ADD15C,0.0600*%
%ADD16C,0.0705*%
%ADD17C,0.0000*%
%ADD18C,0.1260*%
D10*
X009609Y006799D02*
X009609Y030421D01*
X048979Y030421D01*
X048979Y006799D01*
X009609Y006799D01*
D11*
X015859Y016185D02*
X015859Y016665D01*
X016859Y016665D02*
X016859Y016185D01*
X017859Y016185D02*
X017859Y016665D01*
X018859Y016665D02*
X018859Y016185D01*
X019859Y016185D02*
X019859Y016665D01*
X020859Y016665D02*
X020859Y016185D01*
X021859Y016185D02*
X021859Y016665D01*
X022859Y016665D02*
X022859Y016185D01*
X027109Y015915D02*
X027109Y015435D01*
X028109Y015435D02*
X028109Y015915D01*
X029109Y015915D02*
X029109Y015435D01*
X030109Y015435D02*
X030109Y015915D01*
X031109Y015915D02*
X031109Y015435D01*
X032109Y015435D02*
X032109Y015915D01*
X033109Y015915D02*
X033109Y015435D01*
X034109Y015435D02*
X034109Y015915D01*
X034109Y012915D02*
X034109Y012435D01*
X033109Y012435D02*
X033109Y012915D01*
X032109Y012915D02*
X032109Y012435D01*
X031109Y012435D02*
X031109Y012915D01*
X030109Y012915D02*
X030109Y012435D01*
X029109Y012435D02*
X029109Y012915D01*
X028109Y012915D02*
X028109Y012435D01*
X027109Y012435D02*
X027109Y012915D01*
X022859Y019185D02*
X022859Y019665D01*
X021859Y019665D02*
X021859Y019185D01*
X020859Y019185D02*
X020859Y019665D01*
X019859Y019665D02*
X019859Y019185D01*
X018859Y019185D02*
X018859Y019665D01*
X017859Y019665D02*
X017859Y019185D01*
X016859Y019185D02*
X016859Y019665D01*
X015859Y019665D02*
X015859Y019185D01*
X015859Y020685D02*
X015859Y021165D01*
X016859Y021165D02*
X016859Y020685D01*
X017859Y020685D02*
X017859Y021165D01*
X018859Y021165D02*
X018859Y020685D01*
X019859Y020685D02*
X019859Y021165D01*
X020859Y021165D02*
X020859Y020685D01*
X021859Y020685D02*
X021859Y021165D01*
X021859Y023685D02*
X021859Y024165D01*
X020859Y024165D02*
X020859Y023685D01*
X019859Y023685D02*
X019859Y024165D01*
X018859Y024165D02*
X018859Y023685D01*
X017859Y023685D02*
X017859Y024165D01*
X016859Y024165D02*
X016859Y023685D01*
X015859Y023685D02*
X015859Y024165D01*
X014859Y024165D02*
X014859Y023685D01*
X013859Y023685D02*
X013859Y024165D01*
X013859Y021165D02*
X013859Y020685D01*
X014859Y020685D02*
X014859Y021165D01*
X025109Y024185D02*
X025109Y024665D01*
X026109Y024665D02*
X026109Y024185D01*
X027109Y024185D02*
X027109Y024665D01*
X028109Y024665D02*
X028109Y024185D01*
X029109Y024185D02*
X029109Y024665D01*
X030109Y024665D02*
X030109Y024185D01*
X031109Y024185D02*
X031109Y024665D01*
X032109Y024665D02*
X032109Y024185D01*
X032109Y027185D02*
X032109Y027665D01*
X031109Y027665D02*
X031109Y027185D01*
X030109Y027185D02*
X030109Y027665D01*
X029109Y027665D02*
X029109Y027185D01*
X028109Y027185D02*
X028109Y027665D01*
X027109Y027665D02*
X027109Y027185D01*
X026109Y027185D02*
X026109Y027665D01*
X025109Y027665D02*
X025109Y027185D01*
X038609Y024165D02*
X038609Y023685D01*
X039609Y023685D02*
X039609Y024165D01*
X040609Y024165D02*
X040609Y023685D01*
X041609Y023685D02*
X041609Y024165D01*
X042609Y024165D02*
X042609Y023685D01*
X043609Y023685D02*
X043609Y024165D01*
X044609Y024165D02*
X044609Y023685D01*
X045609Y023685D02*
X045609Y024165D01*
X046609Y024165D02*
X046609Y023685D01*
X046609Y021165D02*
X046609Y020685D01*
X045609Y020685D02*
X045609Y021165D01*
X044609Y021165D02*
X044609Y020685D01*
X043609Y020685D02*
X043609Y021165D01*
X042609Y021165D02*
X042609Y020685D01*
X041609Y020685D02*
X041609Y021165D01*
X040609Y021165D02*
X040609Y020685D01*
X039609Y020685D02*
X039609Y021165D01*
X038609Y021165D02*
X038609Y020685D01*
X040609Y019665D02*
X040609Y019185D01*
X041609Y019185D02*
X041609Y019665D01*
X042609Y019665D02*
X042609Y019185D01*
X043609Y019185D02*
X043609Y019665D01*
X044609Y019665D02*
X044609Y019185D01*
X045609Y019185D02*
X045609Y019665D01*
X046609Y019665D02*
X046609Y019185D01*
X047609Y019185D02*
X047609Y019665D01*
X047609Y016665D02*
X047609Y016185D01*
X046609Y016185D02*
X046609Y016665D01*
X045609Y016665D02*
X045609Y016185D01*
X044609Y016185D02*
X044609Y016665D01*
X043609Y016665D02*
X043609Y016185D01*
X042609Y016185D02*
X042609Y016665D01*
X041609Y016665D02*
X041609Y016185D01*
X040609Y016185D02*
X040609Y016665D01*
D12*
X040609Y012425D03*
X041609Y012425D03*
X042609Y012425D03*
X043609Y012425D03*
X044609Y012425D03*
X039609Y012425D03*
X038609Y012425D03*
X019859Y012425D03*
X018859Y012425D03*
X017859Y012425D03*
X016859Y012425D03*
X015859Y012425D03*
X014859Y012425D03*
X013859Y012425D03*
X013859Y027425D03*
X014859Y027425D03*
X015859Y027425D03*
X016859Y027425D03*
X017859Y027425D03*
X018859Y027425D03*
X019859Y027425D03*
X038609Y027425D03*
X039609Y027425D03*
X040609Y027425D03*
X041609Y027425D03*
X042609Y027425D03*
X043609Y027425D03*
X044609Y027425D03*
D13*
X029294Y022653D03*
X029294Y021653D03*
X029294Y018322D03*
X029294Y017322D03*
D14*
X028484Y019374D03*
X028484Y020476D03*
D15*
X021609Y008225D02*
X021609Y007625D01*
X020609Y007625D02*
X020609Y008225D01*
X019609Y008225D02*
X019609Y007625D01*
X018609Y007625D02*
X018609Y008225D01*
X017609Y008225D02*
X017609Y007625D01*
X016609Y007625D02*
X016609Y008225D01*
X015609Y008225D02*
X015609Y007625D01*
X014609Y007625D02*
X014609Y008225D01*
X037109Y008225D02*
X037109Y007625D01*
X038109Y007625D02*
X038109Y008225D01*
X039109Y008225D02*
X039109Y007625D01*
X040109Y007625D02*
X040109Y008225D01*
X041109Y008225D02*
X041109Y007625D01*
X042109Y007625D02*
X042109Y008225D01*
X043109Y008225D02*
X043109Y007625D01*
X044109Y007625D02*
X044109Y008225D01*
D16*
X031109Y008527D02*
X031109Y007822D01*
X029109Y007822D02*
X029109Y008527D01*
D17*
X010947Y008767D02*
X010949Y008817D01*
X010955Y008867D01*
X010965Y008916D01*
X010979Y008964D01*
X010996Y009011D01*
X011017Y009056D01*
X011042Y009100D01*
X011070Y009141D01*
X011102Y009180D01*
X011136Y009217D01*
X011173Y009251D01*
X011213Y009281D01*
X011255Y009308D01*
X011299Y009332D01*
X011345Y009353D01*
X011392Y009369D01*
X011440Y009382D01*
X011490Y009391D01*
X011539Y009396D01*
X011590Y009397D01*
X011640Y009394D01*
X011689Y009387D01*
X011738Y009376D01*
X011786Y009361D01*
X011832Y009343D01*
X011877Y009321D01*
X011920Y009295D01*
X011961Y009266D01*
X012000Y009234D01*
X012036Y009199D01*
X012068Y009161D01*
X012098Y009121D01*
X012125Y009078D01*
X012148Y009034D01*
X012167Y008988D01*
X012183Y008940D01*
X012195Y008891D01*
X012203Y008842D01*
X012207Y008792D01*
X012207Y008742D01*
X012203Y008692D01*
X012195Y008643D01*
X012183Y008594D01*
X012167Y008546D01*
X012148Y008500D01*
X012125Y008456D01*
X012098Y008413D01*
X012068Y008373D01*
X012036Y008335D01*
X012000Y008300D01*
X011961Y008268D01*
X011920Y008239D01*
X011877Y008213D01*
X011832Y008191D01*
X011786Y008173D01*
X011738Y008158D01*
X011689Y008147D01*
X011640Y008140D01*
X011590Y008137D01*
X011539Y008138D01*
X011490Y008143D01*
X011440Y008152D01*
X011392Y008165D01*
X011345Y008181D01*
X011299Y008202D01*
X011255Y008226D01*
X011213Y008253D01*
X011173Y008283D01*
X011136Y008317D01*
X011102Y008354D01*
X011070Y008393D01*
X011042Y008434D01*
X011017Y008478D01*
X010996Y008523D01*
X010979Y008570D01*
X010965Y008618D01*
X010955Y008667D01*
X010949Y008717D01*
X010947Y008767D01*
X010947Y028452D02*
X010949Y028502D01*
X010955Y028552D01*
X010965Y028601D01*
X010979Y028649D01*
X010996Y028696D01*
X011017Y028741D01*
X011042Y028785D01*
X011070Y028826D01*
X011102Y028865D01*
X011136Y028902D01*
X011173Y028936D01*
X011213Y028966D01*
X011255Y028993D01*
X011299Y029017D01*
X011345Y029038D01*
X011392Y029054D01*
X011440Y029067D01*
X011490Y029076D01*
X011539Y029081D01*
X011590Y029082D01*
X011640Y029079D01*
X011689Y029072D01*
X011738Y029061D01*
X011786Y029046D01*
X011832Y029028D01*
X011877Y029006D01*
X011920Y028980D01*
X011961Y028951D01*
X012000Y028919D01*
X012036Y028884D01*
X012068Y028846D01*
X012098Y028806D01*
X012125Y028763D01*
X012148Y028719D01*
X012167Y028673D01*
X012183Y028625D01*
X012195Y028576D01*
X012203Y028527D01*
X012207Y028477D01*
X012207Y028427D01*
X012203Y028377D01*
X012195Y028328D01*
X012183Y028279D01*
X012167Y028231D01*
X012148Y028185D01*
X012125Y028141D01*
X012098Y028098D01*
X012068Y028058D01*
X012036Y028020D01*
X012000Y027985D01*
X011961Y027953D01*
X011920Y027924D01*
X011877Y027898D01*
X011832Y027876D01*
X011786Y027858D01*
X011738Y027843D01*
X011689Y027832D01*
X011640Y027825D01*
X011590Y027822D01*
X011539Y027823D01*
X011490Y027828D01*
X011440Y027837D01*
X011392Y027850D01*
X011345Y027866D01*
X011299Y027887D01*
X011255Y027911D01*
X011213Y027938D01*
X011173Y027968D01*
X011136Y028002D01*
X011102Y028039D01*
X011070Y028078D01*
X011042Y028119D01*
X011017Y028163D01*
X010996Y028208D01*
X010979Y028255D01*
X010965Y028303D01*
X010955Y028352D01*
X010949Y028402D01*
X010947Y028452D01*
X046380Y028452D02*
X046382Y028502D01*
X046388Y028552D01*
X046398Y028601D01*
X046412Y028649D01*
X046429Y028696D01*
X046450Y028741D01*
X046475Y028785D01*
X046503Y028826D01*
X046535Y028865D01*
X046569Y028902D01*
X046606Y028936D01*
X046646Y028966D01*
X046688Y028993D01*
X046732Y029017D01*
X046778Y029038D01*
X046825Y029054D01*
X046873Y029067D01*
X046923Y029076D01*
X046972Y029081D01*
X047023Y029082D01*
X047073Y029079D01*
X047122Y029072D01*
X047171Y029061D01*
X047219Y029046D01*
X047265Y029028D01*
X047310Y029006D01*
X047353Y028980D01*
X047394Y028951D01*
X047433Y028919D01*
X047469Y028884D01*
X047501Y028846D01*
X047531Y028806D01*
X047558Y028763D01*
X047581Y028719D01*
X047600Y028673D01*
X047616Y028625D01*
X047628Y028576D01*
X047636Y028527D01*
X047640Y028477D01*
X047640Y028427D01*
X047636Y028377D01*
X047628Y028328D01*
X047616Y028279D01*
X047600Y028231D01*
X047581Y028185D01*
X047558Y028141D01*
X047531Y028098D01*
X047501Y028058D01*
X047469Y028020D01*
X047433Y027985D01*
X047394Y027953D01*
X047353Y027924D01*
X047310Y027898D01*
X047265Y027876D01*
X047219Y027858D01*
X047171Y027843D01*
X047122Y027832D01*
X047073Y027825D01*
X047023Y027822D01*
X046972Y027823D01*
X046923Y027828D01*
X046873Y027837D01*
X046825Y027850D01*
X046778Y027866D01*
X046732Y027887D01*
X046688Y027911D01*
X046646Y027938D01*
X046606Y027968D01*
X046569Y028002D01*
X046535Y028039D01*
X046503Y028078D01*
X046475Y028119D01*
X046450Y028163D01*
X046429Y028208D01*
X046412Y028255D01*
X046398Y028303D01*
X046388Y028352D01*
X046382Y028402D01*
X046380Y028452D01*
X046380Y008767D02*
X046382Y008817D01*
X046388Y008867D01*
X046398Y008916D01*
X046412Y008964D01*
X046429Y009011D01*
X046450Y009056D01*
X046475Y009100D01*
X046503Y009141D01*
X046535Y009180D01*
X046569Y009217D01*
X046606Y009251D01*
X046646Y009281D01*
X046688Y009308D01*
X046732Y009332D01*
X046778Y009353D01*
X046825Y009369D01*
X046873Y009382D01*
X046923Y009391D01*
X046972Y009396D01*
X047023Y009397D01*
X047073Y009394D01*
X047122Y009387D01*
X047171Y009376D01*
X047219Y009361D01*
X047265Y009343D01*
X047310Y009321D01*
X047353Y009295D01*
X047394Y009266D01*
X047433Y009234D01*
X047469Y009199D01*
X047501Y009161D01*
X047531Y009121D01*
X047558Y009078D01*
X047581Y009034D01*
X047600Y008988D01*
X047616Y008940D01*
X047628Y008891D01*
X047636Y008842D01*
X047640Y008792D01*
X047640Y008742D01*
X047636Y008692D01*
X047628Y008643D01*
X047616Y008594D01*
X047600Y008546D01*
X047581Y008500D01*
X047558Y008456D01*
X047531Y008413D01*
X047501Y008373D01*
X047469Y008335D01*
X047433Y008300D01*
X047394Y008268D01*
X047353Y008239D01*
X047310Y008213D01*
X047265Y008191D01*
X047219Y008173D01*
X047171Y008158D01*
X047122Y008147D01*
X047073Y008140D01*
X047023Y008137D01*
X046972Y008138D01*
X046923Y008143D01*
X046873Y008152D01*
X046825Y008165D01*
X046778Y008181D01*
X046732Y008202D01*
X046688Y008226D01*
X046646Y008253D01*
X046606Y008283D01*
X046569Y008317D01*
X046535Y008354D01*
X046503Y008393D01*
X046475Y008434D01*
X046450Y008478D01*
X046429Y008523D01*
X046412Y008570D01*
X046398Y008618D01*
X046388Y008667D01*
X046382Y008717D01*
X046380Y008767D01*
D18*
X047010Y008767D03*
X047010Y028452D03*
X011577Y028452D03*
X011577Y008767D03*
M02*
