%
M48
M72
T01C0.0236
T02C0.0315
T03C0.0320
T04C0.0354
T05C0.0400
T06C0.0470
T07C0.1260
%
T01
X16484Y11175
X18359Y10800
X19359Y10425
X20359Y10050
X22609Y11550
X21359Y12675
X19859Y13925
X24359Y12425
X25859Y12425
X29109Y11550
X30109Y10800
X31109Y10425
X32109Y11175
X35109Y13925
X34609Y14425
X33609Y14925
X36109Y14425
X36109Y13925
X38609Y14425
X40609Y14425
X42109Y14925
X43609Y14925
X44109Y11550
X43109Y11550
X42109Y11550
X40109Y11175
X39109Y10050
X38109Y10425
X37109Y10800
X36359Y9175
X41109Y9675
X43609Y9675
X44109Y10800
X36359Y15675
X38609Y18425
X26484Y16550
X26359Y17175
X25859Y17675
X24359Y17675
X23859Y19425
X25859Y21800
X26484Y22425
X23859Y23425
X18859Y26675
X16984Y28550
X18359Y28925
X20359Y28925
X21859Y29300
X26109Y28925
X28109Y29300
X29109Y28550
X15859Y26675
X13234Y26675
X25859Y9175
T02
X29294Y17322
X29294Y18322
X29294Y21653
X29294Y22653
T03
X29109Y24425
X30109Y24425
X31109Y24425
X32109Y24425
X28109Y24425
X27109Y24425
X26109Y24425
X25109Y24425
X21859Y23925
X20859Y23925
X19859Y23925
X18859Y23925
X17859Y23925
X16859Y23925
X15859Y23925
X14859Y23925
X13859Y23925
X13859Y20925
X14859Y20925
X15859Y20925
X16859Y20925
X17859Y20925
X18859Y20925
X19859Y20925
X20859Y20925
X21859Y20925
X21859Y19425
X20859Y19425
X19859Y19425
X18859Y19425
X17859Y19425
X16859Y19425
X15859Y19425
X15859Y16425
X16859Y16425
X17859Y16425
X18859Y16425
X19859Y16425
X20859Y16425
X21859Y16425
X22859Y16425
X27109Y15675
X28109Y15675
X29109Y15675
X30109Y15675
X31109Y15675
X32109Y15675
X33109Y15675
X34109Y15675
X34109Y12675
X33109Y12675
X32109Y12675
X31109Y12675
X30109Y12675
X29109Y12675
X28109Y12675
X27109Y12675
X22859Y19425
X25109Y27425
X26109Y27425
X27109Y27425
X28109Y27425
X29109Y27425
X30109Y27425
X31109Y27425
X32109Y27425
X38609Y23925
X39609Y23925
X40609Y23925
X41609Y23925
X42609Y23925
X43609Y23925
X44609Y23925
X45609Y23925
X46609Y23925
X46609Y20925
X45609Y20925
X44609Y20925
X43609Y20925
X42609Y20925
X41609Y20925
X40609Y20925
X39609Y20925
X38609Y20925
X40609Y19425
X41609Y19425
X42609Y19425
X43609Y19425
X44609Y19425
X45609Y19425
X46609Y19425
X47609Y19425
X47609Y16425
X46609Y16425
X45609Y16425
X44609Y16425
X43609Y16425
X42609Y16425
X41609Y16425
X40609Y16425
T04
X40609Y12425
X41609Y12425
X42609Y12425
X43609Y12425
X44609Y12425
X39609Y12425
X38609Y12425
X19859Y12425
X18859Y12425
X17859Y12425
X16859Y12425
X15859Y12425
X14859Y12425
X13859Y12425
X13859Y27425
X14859Y27425
X15859Y27425
X16859Y27425
X17859Y27425
X18859Y27425
X19859Y27425
X38609Y27425
X39609Y27425
X40609Y27425
X41609Y27425
X42609Y27425
X43609Y27425
X44609Y27425
T05
X44109Y7925
X43109Y7925
X42109Y7925
X41109Y7925
X40109Y7925
X39109Y7925
X38109Y7925
X37109Y7925
X21609Y7925
X20609Y7925
X19609Y7925
X18609Y7925
X17609Y7925
X16609Y7925
X15609Y7925
X14609Y7925
T06
X29109Y8175
X31109Y8175
T07
X11577Y8767
X11577Y28452
X47010Y28452
X47010Y8767
M30
