G75*
%MOIN*%
%OFA0B0*%
%FSLAX24Y24*%
%IPPOS*%
%LPD*%
%AMOC8*
5,1,8,0,0,1.08239X$1,22.5*
%
%ADD10C,0.0120*%
%ADD11C,0.0080*%
%ADD12C,0.1969*%
%ADD13C,0.0040*%
%ADD14C,0.0100*%
%ADD15C,0.0060*%
%ADD16C,0.0050*%
%ADD17C,0.0000*%
D10*
X009609Y006799D02*
X009609Y030421D01*
X048979Y030421D01*
X048979Y006799D01*
X009609Y006799D01*
D11*
X010908Y008767D02*
X010910Y008818D01*
X010916Y008869D01*
X010926Y008919D01*
X010939Y008969D01*
X010957Y009017D01*
X010977Y009064D01*
X011002Y009109D01*
X011030Y009152D01*
X011061Y009193D01*
X011095Y009231D01*
X011132Y009266D01*
X011171Y009299D01*
X011213Y009329D01*
X011257Y009355D01*
X011303Y009377D01*
X011351Y009397D01*
X011400Y009412D01*
X011450Y009424D01*
X011500Y009432D01*
X011551Y009436D01*
X011603Y009436D01*
X011654Y009432D01*
X011704Y009424D01*
X011754Y009412D01*
X011803Y009397D01*
X011851Y009377D01*
X011897Y009355D01*
X011941Y009329D01*
X011983Y009299D01*
X012022Y009266D01*
X012059Y009231D01*
X012093Y009193D01*
X012124Y009152D01*
X012152Y009109D01*
X012177Y009064D01*
X012197Y009017D01*
X012215Y008969D01*
X012228Y008919D01*
X012238Y008869D01*
X012244Y008818D01*
X012246Y008767D01*
X012244Y008716D01*
X012238Y008665D01*
X012228Y008615D01*
X012215Y008565D01*
X012197Y008517D01*
X012177Y008470D01*
X012152Y008425D01*
X012124Y008382D01*
X012093Y008341D01*
X012059Y008303D01*
X012022Y008268D01*
X011983Y008235D01*
X011941Y008205D01*
X011897Y008179D01*
X011851Y008157D01*
X011803Y008137D01*
X011754Y008122D01*
X011704Y008110D01*
X011654Y008102D01*
X011603Y008098D01*
X011551Y008098D01*
X011500Y008102D01*
X011450Y008110D01*
X011400Y008122D01*
X011351Y008137D01*
X011303Y008157D01*
X011257Y008179D01*
X011213Y008205D01*
X011171Y008235D01*
X011132Y008268D01*
X011095Y008303D01*
X011061Y008341D01*
X011030Y008382D01*
X011002Y008425D01*
X010977Y008470D01*
X010957Y008517D01*
X010939Y008565D01*
X010926Y008615D01*
X010916Y008665D01*
X010910Y008716D01*
X010908Y008767D01*
X009477Y009521D02*
X024231Y009521D01*
X024231Y013635D01*
X024437Y013842D01*
X024437Y017651D01*
X024231Y017858D01*
X024231Y021972D01*
X024437Y022179D01*
X024437Y025998D01*
X024231Y026204D01*
X024231Y030319D01*
X009477Y030319D01*
X009477Y026204D01*
X009683Y025998D01*
X009683Y022179D01*
X009477Y021972D01*
X009477Y017858D01*
X009683Y017651D01*
X009683Y013842D01*
X009477Y013635D01*
X009477Y009521D01*
X028544Y018822D02*
X030044Y018822D01*
X034227Y017858D02*
X034433Y017651D01*
X034433Y013842D01*
X034227Y013635D01*
X034227Y009521D01*
X048981Y009521D01*
X048981Y013635D01*
X049187Y013842D01*
X049187Y017651D01*
X048981Y017858D01*
X048981Y021972D01*
X049187Y022179D01*
X049187Y025998D01*
X048981Y026204D01*
X048981Y030319D01*
X034227Y030319D01*
X034227Y026204D01*
X034433Y025998D01*
X034433Y022179D01*
X034227Y021972D01*
X034227Y017858D01*
X030044Y023153D02*
X028544Y023153D01*
X010908Y028452D02*
X010910Y028503D01*
X010916Y028554D01*
X010926Y028604D01*
X010939Y028654D01*
X010957Y028702D01*
X010977Y028749D01*
X011002Y028794D01*
X011030Y028837D01*
X011061Y028878D01*
X011095Y028916D01*
X011132Y028951D01*
X011171Y028984D01*
X011213Y029014D01*
X011257Y029040D01*
X011303Y029062D01*
X011351Y029082D01*
X011400Y029097D01*
X011450Y029109D01*
X011500Y029117D01*
X011551Y029121D01*
X011603Y029121D01*
X011654Y029117D01*
X011704Y029109D01*
X011754Y029097D01*
X011803Y029082D01*
X011851Y029062D01*
X011897Y029040D01*
X011941Y029014D01*
X011983Y028984D01*
X012022Y028951D01*
X012059Y028916D01*
X012093Y028878D01*
X012124Y028837D01*
X012152Y028794D01*
X012177Y028749D01*
X012197Y028702D01*
X012215Y028654D01*
X012228Y028604D01*
X012238Y028554D01*
X012244Y028503D01*
X012246Y028452D01*
X012244Y028401D01*
X012238Y028350D01*
X012228Y028300D01*
X012215Y028250D01*
X012197Y028202D01*
X012177Y028155D01*
X012152Y028110D01*
X012124Y028067D01*
X012093Y028026D01*
X012059Y027988D01*
X012022Y027953D01*
X011983Y027920D01*
X011941Y027890D01*
X011897Y027864D01*
X011851Y027842D01*
X011803Y027822D01*
X011754Y027807D01*
X011704Y027795D01*
X011654Y027787D01*
X011603Y027783D01*
X011551Y027783D01*
X011500Y027787D01*
X011450Y027795D01*
X011400Y027807D01*
X011351Y027822D01*
X011303Y027842D01*
X011257Y027864D01*
X011213Y027890D01*
X011171Y027920D01*
X011132Y027953D01*
X011095Y027988D01*
X011061Y028026D01*
X011030Y028067D01*
X011002Y028110D01*
X010977Y028155D01*
X010957Y028202D01*
X010939Y028250D01*
X010926Y028300D01*
X010916Y028350D01*
X010910Y028401D01*
X010908Y028452D01*
X046341Y028452D02*
X046343Y028503D01*
X046349Y028554D01*
X046359Y028604D01*
X046372Y028654D01*
X046390Y028702D01*
X046410Y028749D01*
X046435Y028794D01*
X046463Y028837D01*
X046494Y028878D01*
X046528Y028916D01*
X046565Y028951D01*
X046604Y028984D01*
X046646Y029014D01*
X046690Y029040D01*
X046736Y029062D01*
X046784Y029082D01*
X046833Y029097D01*
X046883Y029109D01*
X046933Y029117D01*
X046984Y029121D01*
X047036Y029121D01*
X047087Y029117D01*
X047137Y029109D01*
X047187Y029097D01*
X047236Y029082D01*
X047284Y029062D01*
X047330Y029040D01*
X047374Y029014D01*
X047416Y028984D01*
X047455Y028951D01*
X047492Y028916D01*
X047526Y028878D01*
X047557Y028837D01*
X047585Y028794D01*
X047610Y028749D01*
X047630Y028702D01*
X047648Y028654D01*
X047661Y028604D01*
X047671Y028554D01*
X047677Y028503D01*
X047679Y028452D01*
X047677Y028401D01*
X047671Y028350D01*
X047661Y028300D01*
X047648Y028250D01*
X047630Y028202D01*
X047610Y028155D01*
X047585Y028110D01*
X047557Y028067D01*
X047526Y028026D01*
X047492Y027988D01*
X047455Y027953D01*
X047416Y027920D01*
X047374Y027890D01*
X047330Y027864D01*
X047284Y027842D01*
X047236Y027822D01*
X047187Y027807D01*
X047137Y027795D01*
X047087Y027787D01*
X047036Y027783D01*
X046984Y027783D01*
X046933Y027787D01*
X046883Y027795D01*
X046833Y027807D01*
X046784Y027822D01*
X046736Y027842D01*
X046690Y027864D01*
X046646Y027890D01*
X046604Y027920D01*
X046565Y027953D01*
X046528Y027988D01*
X046494Y028026D01*
X046463Y028067D01*
X046435Y028110D01*
X046410Y028155D01*
X046390Y028202D01*
X046372Y028250D01*
X046359Y028300D01*
X046349Y028350D01*
X046343Y028401D01*
X046341Y028452D01*
X046341Y008767D02*
X046343Y008818D01*
X046349Y008869D01*
X046359Y008919D01*
X046372Y008969D01*
X046390Y009017D01*
X046410Y009064D01*
X046435Y009109D01*
X046463Y009152D01*
X046494Y009193D01*
X046528Y009231D01*
X046565Y009266D01*
X046604Y009299D01*
X046646Y009329D01*
X046690Y009355D01*
X046736Y009377D01*
X046784Y009397D01*
X046833Y009412D01*
X046883Y009424D01*
X046933Y009432D01*
X046984Y009436D01*
X047036Y009436D01*
X047087Y009432D01*
X047137Y009424D01*
X047187Y009412D01*
X047236Y009397D01*
X047284Y009377D01*
X047330Y009355D01*
X047374Y009329D01*
X047416Y009299D01*
X047455Y009266D01*
X047492Y009231D01*
X047526Y009193D01*
X047557Y009152D01*
X047585Y009109D01*
X047610Y009064D01*
X047630Y009017D01*
X047648Y008969D01*
X047661Y008919D01*
X047671Y008869D01*
X047677Y008818D01*
X047679Y008767D01*
X047677Y008716D01*
X047671Y008665D01*
X047661Y008615D01*
X047648Y008565D01*
X047630Y008517D01*
X047610Y008470D01*
X047585Y008425D01*
X047557Y008382D01*
X047526Y008341D01*
X047492Y008303D01*
X047455Y008268D01*
X047416Y008235D01*
X047374Y008205D01*
X047330Y008179D01*
X047284Y008157D01*
X047236Y008137D01*
X047187Y008122D01*
X047137Y008110D01*
X047087Y008102D01*
X047036Y008098D01*
X046984Y008098D01*
X046933Y008102D01*
X046883Y008110D01*
X046833Y008122D01*
X046784Y008137D01*
X046736Y008157D01*
X046690Y008179D01*
X046646Y008205D01*
X046604Y008235D01*
X046565Y008268D01*
X046528Y008303D01*
X046494Y008341D01*
X046463Y008382D01*
X046435Y008425D01*
X046410Y008470D01*
X046390Y008517D01*
X046372Y008565D01*
X046359Y008615D01*
X046349Y008665D01*
X046343Y008716D01*
X046341Y008767D01*
D12*
X047609Y010925D03*
X044609Y010925D03*
X041609Y010925D03*
X038609Y010925D03*
X035609Y010925D03*
X035609Y013925D03*
X038609Y013925D03*
X041609Y013925D03*
X044609Y013925D03*
X047609Y013925D03*
X047609Y016925D03*
X044609Y016925D03*
X041609Y016925D03*
X038609Y016925D03*
X035609Y016925D03*
X035609Y019925D03*
X038609Y019925D03*
X041609Y019925D03*
X044609Y019925D03*
X047609Y019925D03*
X047609Y022925D03*
X044609Y022925D03*
X041609Y022925D03*
X038609Y022925D03*
X035609Y022925D03*
X035609Y025925D03*
X038609Y025925D03*
X041609Y025925D03*
X044609Y025925D03*
X047609Y025925D03*
X047609Y028925D03*
X044609Y028925D03*
X041609Y028925D03*
X038609Y028925D03*
X035609Y028925D03*
X022859Y028925D03*
X019859Y028925D03*
X016859Y028925D03*
X013859Y028925D03*
X010859Y028925D03*
X010859Y025925D03*
X013859Y025925D03*
X016859Y025925D03*
X019859Y025925D03*
X022859Y025925D03*
X022859Y022925D03*
X019859Y022925D03*
X016859Y022925D03*
X013859Y022925D03*
X010859Y022925D03*
X010859Y019925D03*
X013859Y019925D03*
X016859Y019925D03*
X019859Y019925D03*
X022859Y019925D03*
X022859Y016925D03*
X019859Y016925D03*
X016859Y016925D03*
X013859Y016925D03*
X010859Y016925D03*
X010859Y013925D03*
X013859Y013925D03*
X016859Y013925D03*
X019859Y013925D03*
X022859Y013925D03*
X022859Y010925D03*
X019859Y010925D03*
X016859Y010925D03*
X013859Y010925D03*
X010859Y010925D03*
D13*
X022504Y013695D02*
X022504Y014155D01*
X022734Y014155D01*
X022810Y014078D01*
X022810Y013925D01*
X022734Y013848D01*
X022504Y013848D01*
X022657Y013848D02*
X022810Y013695D01*
X022964Y013772D02*
X023041Y013695D01*
X023194Y013695D01*
X023271Y013772D01*
X023271Y013848D01*
X023194Y013925D01*
X023117Y013925D01*
X023194Y013925D02*
X023271Y014002D01*
X023271Y014078D01*
X023194Y014155D01*
X023041Y014155D01*
X022964Y014078D01*
X024455Y020524D02*
X024762Y020524D01*
X024839Y020601D01*
X024839Y020754D01*
X024762Y020831D01*
X024762Y020984D02*
X024839Y021061D01*
X024839Y021215D01*
X024762Y021291D01*
X024685Y021291D01*
X024608Y021215D01*
X024608Y021138D01*
X024608Y021215D02*
X024532Y021291D01*
X024455Y021291D01*
X024378Y021215D01*
X024378Y021061D01*
X024455Y020984D01*
X024455Y020831D02*
X024378Y020754D01*
X024378Y020601D01*
X024455Y020524D01*
X018339Y025445D02*
X017878Y025445D01*
X017878Y025675D01*
X017955Y025752D01*
X018108Y025752D01*
X018185Y025675D01*
X018185Y025445D01*
X018185Y025598D02*
X018339Y025752D01*
X018262Y025905D02*
X018339Y025982D01*
X018339Y026135D01*
X018262Y026212D01*
X017955Y026212D01*
X017878Y026135D01*
X017878Y025982D01*
X017955Y025905D01*
X018032Y025905D01*
X018108Y025982D01*
X018108Y026212D01*
X017339Y026135D02*
X017339Y025982D01*
X017262Y025905D01*
X017185Y025905D01*
X017108Y025982D01*
X017108Y026135D01*
X017185Y026212D01*
X017262Y026212D01*
X017339Y026135D01*
X017108Y026135D02*
X017032Y026212D01*
X016955Y026212D01*
X016878Y026135D01*
X016878Y025982D01*
X016955Y025905D01*
X017032Y025905D01*
X017108Y025982D01*
X017108Y025752D02*
X017185Y025675D01*
X017185Y025445D01*
X017185Y025598D02*
X017339Y025752D01*
X017108Y025752D02*
X016955Y025752D01*
X016878Y025675D01*
X016878Y025445D01*
X017339Y025445D01*
X016339Y025445D02*
X015878Y025445D01*
X015878Y025675D01*
X015955Y025752D01*
X016108Y025752D01*
X016185Y025675D01*
X016185Y025445D01*
X016185Y025598D02*
X016339Y025752D01*
X016339Y025905D02*
X016262Y025905D01*
X015955Y026212D01*
X015878Y026212D01*
X015878Y025905D01*
X015339Y025982D02*
X015339Y026135D01*
X015262Y026212D01*
X015185Y026212D01*
X015108Y026135D01*
X015108Y025905D01*
X015262Y025905D01*
X015339Y025982D01*
X015339Y025752D02*
X015185Y025598D01*
X015185Y025675D02*
X015185Y025445D01*
X015339Y025445D02*
X014878Y025445D01*
X014878Y025675D01*
X014955Y025752D01*
X015108Y025752D01*
X015185Y025675D01*
X015108Y025905D02*
X014955Y026059D01*
X014878Y026212D01*
X014339Y026135D02*
X014339Y025982D01*
X014262Y025905D01*
X014108Y025905D02*
X014032Y026059D01*
X014032Y026135D01*
X014108Y026212D01*
X014262Y026212D01*
X014339Y026135D01*
X014108Y025905D02*
X013878Y025905D01*
X013878Y026212D01*
X013955Y025752D02*
X014108Y025752D01*
X014185Y025675D01*
X014185Y025445D01*
X014185Y025598D02*
X014339Y025752D01*
X014339Y025445D02*
X013878Y025445D01*
X013878Y025675D01*
X013955Y025752D01*
X010218Y030436D02*
X009911Y030436D01*
X010064Y030436D02*
X010064Y030897D01*
X009911Y030743D01*
X009757Y030820D02*
X009757Y030513D01*
X009681Y030436D01*
X009450Y030436D01*
X009450Y030897D01*
X009681Y030897D01*
X009757Y030820D01*
X034200Y030897D02*
X034200Y030436D01*
X034431Y030436D01*
X034507Y030513D01*
X034507Y030820D01*
X034431Y030897D01*
X034200Y030897D01*
X034661Y030820D02*
X034738Y030897D01*
X034891Y030897D01*
X034968Y030820D01*
X034968Y030743D01*
X034661Y030436D01*
X034968Y030436D01*
X040628Y026596D02*
X040705Y026673D01*
X040782Y026673D01*
X041089Y026366D01*
X041089Y026673D01*
X040628Y026596D02*
X040628Y026442D01*
X040705Y026366D01*
X040628Y026059D02*
X041089Y026059D01*
X041089Y026212D02*
X041089Y025905D01*
X041089Y025752D02*
X040935Y025598D01*
X040935Y025675D02*
X040935Y025445D01*
X041089Y025445D02*
X040628Y025445D01*
X040628Y025675D01*
X040705Y025752D01*
X040858Y025752D01*
X040935Y025675D01*
X040782Y025905D02*
X040628Y026059D01*
X039714Y026212D02*
X039714Y025905D01*
X039407Y026212D01*
X039330Y026212D01*
X039253Y026135D01*
X039253Y025982D01*
X039330Y025905D01*
X039330Y025752D02*
X039483Y025752D01*
X039560Y025675D01*
X039560Y025445D01*
X039560Y025598D02*
X039714Y025752D01*
X039714Y025445D02*
X039253Y025445D01*
X039253Y025675D01*
X039330Y025752D01*
X038714Y025752D02*
X038560Y025598D01*
X038560Y025675D02*
X038560Y025445D01*
X038714Y025445D02*
X038253Y025445D01*
X038253Y025675D01*
X038330Y025752D01*
X038483Y025752D01*
X038560Y025675D01*
X038483Y025905D02*
X038483Y026212D01*
X038253Y026135D02*
X038483Y025905D01*
X038714Y026135D02*
X038253Y026135D01*
X041628Y026059D02*
X041782Y025905D01*
X041858Y025752D02*
X041935Y025675D01*
X041935Y025445D01*
X041935Y025598D02*
X042089Y025752D01*
X042089Y025905D02*
X042089Y026212D01*
X042089Y026059D02*
X041628Y026059D01*
X041705Y025752D02*
X041858Y025752D01*
X041705Y025752D02*
X041628Y025675D01*
X041628Y025445D01*
X042089Y025445D01*
X042628Y025445D02*
X042628Y025675D01*
X042705Y025752D01*
X042858Y025752D01*
X042935Y025675D01*
X042935Y025445D01*
X042935Y025598D02*
X043089Y025752D01*
X043089Y025905D02*
X043089Y026212D01*
X043089Y026059D02*
X042628Y026059D01*
X042782Y025905D01*
X042628Y025445D02*
X043089Y025445D01*
X043012Y026366D02*
X042705Y026366D01*
X042628Y026442D01*
X042628Y026596D01*
X042705Y026673D01*
X043012Y026366D01*
X043089Y026442D01*
X043089Y026596D01*
X043012Y026673D01*
X042705Y026673D01*
X042089Y026673D02*
X042089Y026366D01*
X042089Y026519D02*
X041628Y026519D01*
X041782Y026366D01*
X039589Y019791D02*
X039589Y019484D01*
X039282Y019791D01*
X039205Y019791D01*
X039128Y019715D01*
X039128Y019561D01*
X039205Y019484D01*
X039205Y019331D02*
X039128Y019254D01*
X039128Y019101D01*
X039205Y019024D01*
X039512Y019024D01*
X039589Y019101D01*
X039589Y019254D01*
X039512Y019331D01*
X037822Y015155D02*
X037822Y014695D01*
X037975Y014695D02*
X037668Y014695D01*
X037515Y014772D02*
X037438Y014695D01*
X037284Y014695D01*
X037208Y014772D01*
X037208Y015078D01*
X037284Y015155D01*
X037438Y015155D01*
X037515Y015078D01*
X037668Y015002D02*
X037822Y015155D01*
D14*
X030044Y018822D02*
X030098Y018779D01*
X030150Y018733D01*
X030199Y018684D01*
X030246Y018632D01*
X030289Y018578D01*
X030330Y018522D01*
X030367Y018463D01*
X030401Y018403D01*
X030431Y018340D01*
X030458Y018277D01*
X030482Y018211D01*
X030502Y018145D01*
X030518Y018077D01*
X030530Y018009D01*
X030538Y017940D01*
X030543Y017871D01*
X030544Y017801D01*
X030541Y017732D01*
X030534Y017663D01*
X030523Y017595D01*
X030509Y017527D01*
X030490Y017460D01*
X030468Y017394D01*
X030443Y017329D01*
X030414Y017266D01*
X030381Y017205D01*
X030345Y017146D01*
X030306Y017089D01*
X030264Y017033D01*
X030219Y016981D01*
X030171Y016931D01*
X030120Y016884D01*
X030066Y016839D01*
X030011Y016798D01*
X029953Y016760D01*
X029893Y016725D01*
X029831Y016693D01*
X029768Y016665D01*
X029703Y016641D01*
X029637Y016620D01*
X029569Y016603D01*
X029501Y016589D01*
X029432Y016580D01*
X029363Y016574D01*
X029294Y016572D01*
X029225Y016574D01*
X029156Y016580D01*
X029087Y016589D01*
X029019Y016603D01*
X028951Y016620D01*
X028885Y016641D01*
X028820Y016665D01*
X028757Y016693D01*
X028695Y016725D01*
X028635Y016760D01*
X028577Y016798D01*
X028522Y016839D01*
X028468Y016884D01*
X028417Y016931D01*
X028369Y016981D01*
X028324Y017033D01*
X028282Y017089D01*
X028243Y017146D01*
X028207Y017205D01*
X028174Y017266D01*
X028145Y017329D01*
X028120Y017394D01*
X028098Y017460D01*
X028079Y017527D01*
X028065Y017595D01*
X028054Y017663D01*
X028047Y017732D01*
X028044Y017801D01*
X028045Y017871D01*
X028050Y017940D01*
X028058Y018009D01*
X028070Y018077D01*
X028086Y018145D01*
X028106Y018211D01*
X028130Y018277D01*
X028157Y018340D01*
X028187Y018403D01*
X028221Y018463D01*
X028258Y018522D01*
X028299Y018578D01*
X028342Y018632D01*
X028389Y018684D01*
X028438Y018733D01*
X028490Y018779D01*
X028544Y018822D01*
X028544Y023153D02*
X028490Y023110D01*
X028438Y023064D01*
X028389Y023015D01*
X028342Y022963D01*
X028299Y022909D01*
X028258Y022853D01*
X028221Y022794D01*
X028187Y022734D01*
X028157Y022671D01*
X028130Y022608D01*
X028106Y022542D01*
X028086Y022476D01*
X028070Y022408D01*
X028058Y022340D01*
X028050Y022271D01*
X028045Y022202D01*
X028044Y022132D01*
X028047Y022063D01*
X028054Y021994D01*
X028065Y021926D01*
X028079Y021858D01*
X028098Y021791D01*
X028120Y021725D01*
X028145Y021660D01*
X028174Y021597D01*
X028207Y021536D01*
X028243Y021477D01*
X028282Y021420D01*
X028324Y021364D01*
X028369Y021312D01*
X028417Y021262D01*
X028468Y021215D01*
X028522Y021170D01*
X028577Y021129D01*
X028635Y021091D01*
X028695Y021056D01*
X028757Y021024D01*
X028820Y020996D01*
X028885Y020972D01*
X028951Y020951D01*
X029019Y020934D01*
X029087Y020920D01*
X029156Y020911D01*
X029225Y020905D01*
X029294Y020903D01*
X029363Y020905D01*
X029432Y020911D01*
X029501Y020920D01*
X029569Y020934D01*
X029637Y020951D01*
X029703Y020972D01*
X029768Y020996D01*
X029831Y021024D01*
X029893Y021056D01*
X029953Y021091D01*
X030011Y021129D01*
X030066Y021170D01*
X030120Y021215D01*
X030171Y021262D01*
X030219Y021312D01*
X030264Y021364D01*
X030306Y021420D01*
X030345Y021477D01*
X030381Y021536D01*
X030414Y021597D01*
X030443Y021660D01*
X030468Y021725D01*
X030490Y021791D01*
X030509Y021858D01*
X030523Y021926D01*
X030534Y021994D01*
X030541Y022063D01*
X030544Y022132D01*
X030543Y022202D01*
X030538Y022271D01*
X030530Y022340D01*
X030518Y022408D01*
X030502Y022476D01*
X030482Y022542D01*
X030458Y022608D01*
X030431Y022671D01*
X030401Y022734D01*
X030367Y022794D01*
X030330Y022853D01*
X030289Y022909D01*
X030246Y022963D01*
X030199Y023015D01*
X030150Y023064D01*
X030098Y023110D01*
X030044Y023153D01*
D15*
X028294Y022153D02*
X028296Y022216D01*
X028302Y022278D01*
X028312Y022340D01*
X028325Y022402D01*
X028343Y022462D01*
X028364Y022521D01*
X028389Y022579D01*
X028418Y022635D01*
X028450Y022689D01*
X028485Y022741D01*
X028523Y022790D01*
X028565Y022838D01*
X028609Y022882D01*
X028657Y022924D01*
X028706Y022962D01*
X028758Y022997D01*
X028812Y023029D01*
X028868Y023058D01*
X028926Y023083D01*
X028985Y023104D01*
X029045Y023122D01*
X029107Y023135D01*
X029169Y023145D01*
X029231Y023151D01*
X029294Y023153D01*
X029357Y023151D01*
X029419Y023145D01*
X029481Y023135D01*
X029543Y023122D01*
X029603Y023104D01*
X029662Y023083D01*
X029720Y023058D01*
X029776Y023029D01*
X029830Y022997D01*
X029882Y022962D01*
X029931Y022924D01*
X029979Y022882D01*
X030023Y022838D01*
X030065Y022790D01*
X030103Y022741D01*
X030138Y022689D01*
X030170Y022635D01*
X030199Y022579D01*
X030224Y022521D01*
X030245Y022462D01*
X030263Y022402D01*
X030276Y022340D01*
X030286Y022278D01*
X030292Y022216D01*
X030294Y022153D01*
X030292Y022090D01*
X030286Y022028D01*
X030276Y021966D01*
X030263Y021904D01*
X030245Y021844D01*
X030224Y021785D01*
X030199Y021727D01*
X030170Y021671D01*
X030138Y021617D01*
X030103Y021565D01*
X030065Y021516D01*
X030023Y021468D01*
X029979Y021424D01*
X029931Y021382D01*
X029882Y021344D01*
X029830Y021309D01*
X029776Y021277D01*
X029720Y021248D01*
X029662Y021223D01*
X029603Y021202D01*
X029543Y021184D01*
X029481Y021171D01*
X029419Y021161D01*
X029357Y021155D01*
X029294Y021153D01*
X029231Y021155D01*
X029169Y021161D01*
X029107Y021171D01*
X029045Y021184D01*
X028985Y021202D01*
X028926Y021223D01*
X028868Y021248D01*
X028812Y021277D01*
X028758Y021309D01*
X028706Y021344D01*
X028657Y021382D01*
X028609Y021424D01*
X028565Y021468D01*
X028523Y021516D01*
X028485Y021565D01*
X028450Y021617D01*
X028418Y021671D01*
X028389Y021727D01*
X028364Y021785D01*
X028343Y021844D01*
X028325Y021904D01*
X028312Y021966D01*
X028302Y022028D01*
X028296Y022090D01*
X028294Y022153D01*
X028294Y017822D02*
X028296Y017885D01*
X028302Y017947D01*
X028312Y018009D01*
X028325Y018071D01*
X028343Y018131D01*
X028364Y018190D01*
X028389Y018248D01*
X028418Y018304D01*
X028450Y018358D01*
X028485Y018410D01*
X028523Y018459D01*
X028565Y018507D01*
X028609Y018551D01*
X028657Y018593D01*
X028706Y018631D01*
X028758Y018666D01*
X028812Y018698D01*
X028868Y018727D01*
X028926Y018752D01*
X028985Y018773D01*
X029045Y018791D01*
X029107Y018804D01*
X029169Y018814D01*
X029231Y018820D01*
X029294Y018822D01*
X029357Y018820D01*
X029419Y018814D01*
X029481Y018804D01*
X029543Y018791D01*
X029603Y018773D01*
X029662Y018752D01*
X029720Y018727D01*
X029776Y018698D01*
X029830Y018666D01*
X029882Y018631D01*
X029931Y018593D01*
X029979Y018551D01*
X030023Y018507D01*
X030065Y018459D01*
X030103Y018410D01*
X030138Y018358D01*
X030170Y018304D01*
X030199Y018248D01*
X030224Y018190D01*
X030245Y018131D01*
X030263Y018071D01*
X030276Y018009D01*
X030286Y017947D01*
X030292Y017885D01*
X030294Y017822D01*
X030292Y017759D01*
X030286Y017697D01*
X030276Y017635D01*
X030263Y017573D01*
X030245Y017513D01*
X030224Y017454D01*
X030199Y017396D01*
X030170Y017340D01*
X030138Y017286D01*
X030103Y017234D01*
X030065Y017185D01*
X030023Y017137D01*
X029979Y017093D01*
X029931Y017051D01*
X029882Y017013D01*
X029830Y016978D01*
X029776Y016946D01*
X029720Y016917D01*
X029662Y016892D01*
X029603Y016871D01*
X029543Y016853D01*
X029481Y016840D01*
X029419Y016830D01*
X029357Y016824D01*
X029294Y016822D01*
X029231Y016824D01*
X029169Y016830D01*
X029107Y016840D01*
X029045Y016853D01*
X028985Y016871D01*
X028926Y016892D01*
X028868Y016917D01*
X028812Y016946D01*
X028758Y016978D01*
X028706Y017013D01*
X028657Y017051D01*
X028609Y017093D01*
X028565Y017137D01*
X028523Y017185D01*
X028485Y017234D01*
X028450Y017286D01*
X028418Y017340D01*
X028389Y017396D01*
X028364Y017454D01*
X028343Y017513D01*
X028325Y017573D01*
X028312Y017635D01*
X028302Y017697D01*
X028296Y017759D01*
X028294Y017822D01*
X028109Y010175D02*
X032109Y010175D01*
X032109Y010075D01*
X032109Y007475D01*
X031459Y007475D01*
X032109Y007475D02*
X032109Y006525D01*
X028109Y006525D01*
X028109Y007475D01*
X028759Y007475D01*
X028109Y007475D02*
X028109Y010075D01*
X028109Y010175D01*
X028109Y010075D02*
X032109Y010075D01*
X030909Y009545D02*
X030911Y009573D01*
X030917Y009600D01*
X030926Y009626D01*
X030939Y009651D01*
X030956Y009674D01*
X030975Y009694D01*
X030997Y009711D01*
X031021Y009725D01*
X031047Y009735D01*
X031074Y009742D01*
X031102Y009745D01*
X031130Y009744D01*
X031157Y009739D01*
X031184Y009730D01*
X031209Y009718D01*
X031232Y009703D01*
X031253Y009684D01*
X031271Y009663D01*
X031286Y009639D01*
X031297Y009613D01*
X031305Y009587D01*
X031309Y009559D01*
X031309Y009531D01*
X031305Y009503D01*
X031297Y009477D01*
X031286Y009451D01*
X031271Y009427D01*
X031253Y009406D01*
X031232Y009387D01*
X031209Y009372D01*
X031184Y009360D01*
X031157Y009351D01*
X031130Y009346D01*
X031102Y009345D01*
X031074Y009348D01*
X031047Y009355D01*
X031021Y009365D01*
X030997Y009379D01*
X030975Y009396D01*
X030956Y009416D01*
X030939Y009439D01*
X030926Y009464D01*
X030917Y009490D01*
X030911Y009517D01*
X030909Y009545D01*
X028909Y009545D02*
X028911Y009573D01*
X028917Y009600D01*
X028926Y009626D01*
X028939Y009651D01*
X028956Y009674D01*
X028975Y009694D01*
X028997Y009711D01*
X029021Y009725D01*
X029047Y009735D01*
X029074Y009742D01*
X029102Y009745D01*
X029130Y009744D01*
X029157Y009739D01*
X029184Y009730D01*
X029209Y009718D01*
X029232Y009703D01*
X029253Y009684D01*
X029271Y009663D01*
X029286Y009639D01*
X029297Y009613D01*
X029305Y009587D01*
X029309Y009559D01*
X029309Y009531D01*
X029305Y009503D01*
X029297Y009477D01*
X029286Y009451D01*
X029271Y009427D01*
X029253Y009406D01*
X029232Y009387D01*
X029209Y009372D01*
X029184Y009360D01*
X029157Y009351D01*
X029130Y009346D01*
X029102Y009345D01*
X029074Y009348D01*
X029047Y009355D01*
X029021Y009365D01*
X028997Y009379D01*
X028975Y009396D01*
X028956Y009416D01*
X028939Y009439D01*
X028926Y009464D01*
X028917Y009490D01*
X028911Y009517D01*
X028909Y009545D01*
X029459Y007475D02*
X030759Y007475D01*
X036609Y007675D02*
X036859Y007425D01*
X037359Y007425D01*
X037609Y007675D01*
X037609Y008175D01*
X037359Y008425D01*
X036859Y008425D01*
X036609Y008175D01*
X036609Y007675D01*
X037609Y007675D02*
X037859Y007425D01*
X038359Y007425D01*
X038609Y007675D01*
X038609Y008175D01*
X038359Y008425D01*
X037859Y008425D01*
X037609Y008175D01*
X038609Y008175D02*
X038859Y008425D01*
X039359Y008425D01*
X039609Y008175D01*
X039859Y008425D01*
X040359Y008425D01*
X040609Y008175D01*
X040859Y008425D01*
X041359Y008425D01*
X041609Y008175D01*
X041859Y008425D01*
X042359Y008425D01*
X042609Y008175D01*
X042859Y008425D01*
X043359Y008425D01*
X043609Y008175D01*
X043859Y008425D01*
X044359Y008425D01*
X044609Y008175D01*
X044609Y007675D01*
X044359Y007425D01*
X043859Y007425D01*
X043609Y007675D01*
X043359Y007425D01*
X042859Y007425D01*
X042609Y007675D01*
X042609Y008175D01*
X042609Y007675D02*
X042359Y007425D01*
X041859Y007425D01*
X041609Y007675D01*
X041359Y007425D01*
X040859Y007425D01*
X040609Y007675D01*
X040359Y007425D01*
X039859Y007425D01*
X039609Y007675D01*
X039609Y008175D01*
X039609Y007675D02*
X039359Y007425D01*
X038859Y007425D01*
X038609Y007675D01*
X040609Y007675D02*
X040609Y008175D01*
X041609Y008175D02*
X041609Y007675D01*
X043609Y007675D02*
X043609Y008175D01*
X045660Y008767D02*
X045662Y008840D01*
X045668Y008913D01*
X045678Y008985D01*
X045692Y009057D01*
X045709Y009128D01*
X045731Y009198D01*
X045756Y009267D01*
X045785Y009334D01*
X045817Y009399D01*
X045853Y009463D01*
X045893Y009525D01*
X045935Y009584D01*
X045981Y009641D01*
X046030Y009695D01*
X046082Y009747D01*
X046136Y009796D01*
X046193Y009842D01*
X046252Y009884D01*
X046314Y009924D01*
X046378Y009960D01*
X046443Y009992D01*
X046510Y010021D01*
X046579Y010046D01*
X046649Y010068D01*
X046720Y010085D01*
X046792Y010099D01*
X046864Y010109D01*
X046937Y010115D01*
X047010Y010117D01*
X047083Y010115D01*
X047156Y010109D01*
X047228Y010099D01*
X047300Y010085D01*
X047371Y010068D01*
X047441Y010046D01*
X047510Y010021D01*
X047577Y009992D01*
X047642Y009960D01*
X047706Y009924D01*
X047768Y009884D01*
X047827Y009842D01*
X047884Y009796D01*
X047938Y009747D01*
X047990Y009695D01*
X048039Y009641D01*
X048085Y009584D01*
X048127Y009525D01*
X048167Y009463D01*
X048203Y009399D01*
X048235Y009334D01*
X048264Y009267D01*
X048289Y009198D01*
X048311Y009128D01*
X048328Y009057D01*
X048342Y008985D01*
X048352Y008913D01*
X048358Y008840D01*
X048360Y008767D01*
X048358Y008694D01*
X048352Y008621D01*
X048342Y008549D01*
X048328Y008477D01*
X048311Y008406D01*
X048289Y008336D01*
X048264Y008267D01*
X048235Y008200D01*
X048203Y008135D01*
X048167Y008071D01*
X048127Y008009D01*
X048085Y007950D01*
X048039Y007893D01*
X047990Y007839D01*
X047938Y007787D01*
X047884Y007738D01*
X047827Y007692D01*
X047768Y007650D01*
X047706Y007610D01*
X047642Y007574D01*
X047577Y007542D01*
X047510Y007513D01*
X047441Y007488D01*
X047371Y007466D01*
X047300Y007449D01*
X047228Y007435D01*
X047156Y007425D01*
X047083Y007419D01*
X047010Y007417D01*
X046937Y007419D01*
X046864Y007425D01*
X046792Y007435D01*
X046720Y007449D01*
X046649Y007466D01*
X046579Y007488D01*
X046510Y007513D01*
X046443Y007542D01*
X046378Y007574D01*
X046314Y007610D01*
X046252Y007650D01*
X046193Y007692D01*
X046136Y007738D01*
X046082Y007787D01*
X046030Y007839D01*
X045981Y007893D01*
X045935Y007950D01*
X045893Y008009D01*
X045853Y008071D01*
X045817Y008135D01*
X045785Y008200D01*
X045756Y008267D01*
X045731Y008336D01*
X045709Y008406D01*
X045692Y008477D01*
X045678Y008549D01*
X045668Y008621D01*
X045662Y008694D01*
X045660Y008767D01*
X022109Y008175D02*
X022109Y007675D01*
X021859Y007425D01*
X021359Y007425D01*
X021109Y007675D01*
X020859Y007425D01*
X020359Y007425D01*
X020109Y007675D01*
X020109Y008175D01*
X020359Y008425D01*
X020859Y008425D01*
X021109Y008175D01*
X021359Y008425D01*
X021859Y008425D01*
X022109Y008175D01*
X021109Y008175D02*
X021109Y007675D01*
X020109Y007675D02*
X019859Y007425D01*
X019359Y007425D01*
X019109Y007675D01*
X018859Y007425D01*
X018359Y007425D01*
X018109Y007675D01*
X017859Y007425D01*
X017359Y007425D01*
X017109Y007675D01*
X017109Y008175D01*
X017359Y008425D01*
X017859Y008425D01*
X018109Y008175D01*
X018359Y008425D01*
X018859Y008425D01*
X019109Y008175D01*
X019359Y008425D01*
X019859Y008425D01*
X020109Y008175D01*
X019109Y008175D02*
X019109Y007675D01*
X018109Y007675D02*
X018109Y008175D01*
X017109Y008175D02*
X016859Y008425D01*
X016359Y008425D01*
X016109Y008175D01*
X015859Y008425D01*
X015359Y008425D01*
X015109Y008175D01*
X014859Y008425D01*
X014359Y008425D01*
X014109Y008175D01*
X014109Y007675D01*
X014359Y007425D01*
X014859Y007425D01*
X015109Y007675D01*
X015109Y008175D01*
X015109Y007675D02*
X015359Y007425D01*
X015859Y007425D01*
X016109Y007675D01*
X016109Y008175D01*
X016109Y007675D02*
X016359Y007425D01*
X016859Y007425D01*
X017109Y007675D01*
X010227Y008767D02*
X010229Y008840D01*
X010235Y008913D01*
X010245Y008985D01*
X010259Y009057D01*
X010276Y009128D01*
X010298Y009198D01*
X010323Y009267D01*
X010352Y009334D01*
X010384Y009399D01*
X010420Y009463D01*
X010460Y009525D01*
X010502Y009584D01*
X010548Y009641D01*
X010597Y009695D01*
X010649Y009747D01*
X010703Y009796D01*
X010760Y009842D01*
X010819Y009884D01*
X010881Y009924D01*
X010945Y009960D01*
X011010Y009992D01*
X011077Y010021D01*
X011146Y010046D01*
X011216Y010068D01*
X011287Y010085D01*
X011359Y010099D01*
X011431Y010109D01*
X011504Y010115D01*
X011577Y010117D01*
X011650Y010115D01*
X011723Y010109D01*
X011795Y010099D01*
X011867Y010085D01*
X011938Y010068D01*
X012008Y010046D01*
X012077Y010021D01*
X012144Y009992D01*
X012209Y009960D01*
X012273Y009924D01*
X012335Y009884D01*
X012394Y009842D01*
X012451Y009796D01*
X012505Y009747D01*
X012557Y009695D01*
X012606Y009641D01*
X012652Y009584D01*
X012694Y009525D01*
X012734Y009463D01*
X012770Y009399D01*
X012802Y009334D01*
X012831Y009267D01*
X012856Y009198D01*
X012878Y009128D01*
X012895Y009057D01*
X012909Y008985D01*
X012919Y008913D01*
X012925Y008840D01*
X012927Y008767D01*
X012925Y008694D01*
X012919Y008621D01*
X012909Y008549D01*
X012895Y008477D01*
X012878Y008406D01*
X012856Y008336D01*
X012831Y008267D01*
X012802Y008200D01*
X012770Y008135D01*
X012734Y008071D01*
X012694Y008009D01*
X012652Y007950D01*
X012606Y007893D01*
X012557Y007839D01*
X012505Y007787D01*
X012451Y007738D01*
X012394Y007692D01*
X012335Y007650D01*
X012273Y007610D01*
X012209Y007574D01*
X012144Y007542D01*
X012077Y007513D01*
X012008Y007488D01*
X011938Y007466D01*
X011867Y007449D01*
X011795Y007435D01*
X011723Y007425D01*
X011650Y007419D01*
X011577Y007417D01*
X011504Y007419D01*
X011431Y007425D01*
X011359Y007435D01*
X011287Y007449D01*
X011216Y007466D01*
X011146Y007488D01*
X011077Y007513D01*
X011010Y007542D01*
X010945Y007574D01*
X010881Y007610D01*
X010819Y007650D01*
X010760Y007692D01*
X010703Y007738D01*
X010649Y007787D01*
X010597Y007839D01*
X010548Y007893D01*
X010502Y007950D01*
X010460Y008009D01*
X010420Y008071D01*
X010384Y008135D01*
X010352Y008200D01*
X010323Y008267D01*
X010298Y008336D01*
X010276Y008406D01*
X010259Y008477D01*
X010245Y008549D01*
X010235Y008621D01*
X010229Y008694D01*
X010227Y008767D01*
X010227Y028452D02*
X010229Y028525D01*
X010235Y028598D01*
X010245Y028670D01*
X010259Y028742D01*
X010276Y028813D01*
X010298Y028883D01*
X010323Y028952D01*
X010352Y029019D01*
X010384Y029084D01*
X010420Y029148D01*
X010460Y029210D01*
X010502Y029269D01*
X010548Y029326D01*
X010597Y029380D01*
X010649Y029432D01*
X010703Y029481D01*
X010760Y029527D01*
X010819Y029569D01*
X010881Y029609D01*
X010945Y029645D01*
X011010Y029677D01*
X011077Y029706D01*
X011146Y029731D01*
X011216Y029753D01*
X011287Y029770D01*
X011359Y029784D01*
X011431Y029794D01*
X011504Y029800D01*
X011577Y029802D01*
X011650Y029800D01*
X011723Y029794D01*
X011795Y029784D01*
X011867Y029770D01*
X011938Y029753D01*
X012008Y029731D01*
X012077Y029706D01*
X012144Y029677D01*
X012209Y029645D01*
X012273Y029609D01*
X012335Y029569D01*
X012394Y029527D01*
X012451Y029481D01*
X012505Y029432D01*
X012557Y029380D01*
X012606Y029326D01*
X012652Y029269D01*
X012694Y029210D01*
X012734Y029148D01*
X012770Y029084D01*
X012802Y029019D01*
X012831Y028952D01*
X012856Y028883D01*
X012878Y028813D01*
X012895Y028742D01*
X012909Y028670D01*
X012919Y028598D01*
X012925Y028525D01*
X012927Y028452D01*
X012925Y028379D01*
X012919Y028306D01*
X012909Y028234D01*
X012895Y028162D01*
X012878Y028091D01*
X012856Y028021D01*
X012831Y027952D01*
X012802Y027885D01*
X012770Y027820D01*
X012734Y027756D01*
X012694Y027694D01*
X012652Y027635D01*
X012606Y027578D01*
X012557Y027524D01*
X012505Y027472D01*
X012451Y027423D01*
X012394Y027377D01*
X012335Y027335D01*
X012273Y027295D01*
X012209Y027259D01*
X012144Y027227D01*
X012077Y027198D01*
X012008Y027173D01*
X011938Y027151D01*
X011867Y027134D01*
X011795Y027120D01*
X011723Y027110D01*
X011650Y027104D01*
X011577Y027102D01*
X011504Y027104D01*
X011431Y027110D01*
X011359Y027120D01*
X011287Y027134D01*
X011216Y027151D01*
X011146Y027173D01*
X011077Y027198D01*
X011010Y027227D01*
X010945Y027259D01*
X010881Y027295D01*
X010819Y027335D01*
X010760Y027377D01*
X010703Y027423D01*
X010649Y027472D01*
X010597Y027524D01*
X010548Y027578D01*
X010502Y027635D01*
X010460Y027694D01*
X010420Y027756D01*
X010384Y027820D01*
X010352Y027885D01*
X010323Y027952D01*
X010298Y028021D01*
X010276Y028091D01*
X010259Y028162D01*
X010245Y028234D01*
X010235Y028306D01*
X010229Y028379D01*
X010227Y028452D01*
X045660Y028452D02*
X045662Y028525D01*
X045668Y028598D01*
X045678Y028670D01*
X045692Y028742D01*
X045709Y028813D01*
X045731Y028883D01*
X045756Y028952D01*
X045785Y029019D01*
X045817Y029084D01*
X045853Y029148D01*
X045893Y029210D01*
X045935Y029269D01*
X045981Y029326D01*
X046030Y029380D01*
X046082Y029432D01*
X046136Y029481D01*
X046193Y029527D01*
X046252Y029569D01*
X046314Y029609D01*
X046378Y029645D01*
X046443Y029677D01*
X046510Y029706D01*
X046579Y029731D01*
X046649Y029753D01*
X046720Y029770D01*
X046792Y029784D01*
X046864Y029794D01*
X046937Y029800D01*
X047010Y029802D01*
X047083Y029800D01*
X047156Y029794D01*
X047228Y029784D01*
X047300Y029770D01*
X047371Y029753D01*
X047441Y029731D01*
X047510Y029706D01*
X047577Y029677D01*
X047642Y029645D01*
X047706Y029609D01*
X047768Y029569D01*
X047827Y029527D01*
X047884Y029481D01*
X047938Y029432D01*
X047990Y029380D01*
X048039Y029326D01*
X048085Y029269D01*
X048127Y029210D01*
X048167Y029148D01*
X048203Y029084D01*
X048235Y029019D01*
X048264Y028952D01*
X048289Y028883D01*
X048311Y028813D01*
X048328Y028742D01*
X048342Y028670D01*
X048352Y028598D01*
X048358Y028525D01*
X048360Y028452D01*
X048358Y028379D01*
X048352Y028306D01*
X048342Y028234D01*
X048328Y028162D01*
X048311Y028091D01*
X048289Y028021D01*
X048264Y027952D01*
X048235Y027885D01*
X048203Y027820D01*
X048167Y027756D01*
X048127Y027694D01*
X048085Y027635D01*
X048039Y027578D01*
X047990Y027524D01*
X047938Y027472D01*
X047884Y027423D01*
X047827Y027377D01*
X047768Y027335D01*
X047706Y027295D01*
X047642Y027259D01*
X047577Y027227D01*
X047510Y027198D01*
X047441Y027173D01*
X047371Y027151D01*
X047300Y027134D01*
X047228Y027120D01*
X047156Y027110D01*
X047083Y027104D01*
X047010Y027102D01*
X046937Y027104D01*
X046864Y027110D01*
X046792Y027120D01*
X046720Y027134D01*
X046649Y027151D01*
X046579Y027173D01*
X046510Y027198D01*
X046443Y027227D01*
X046378Y027259D01*
X046314Y027295D01*
X046252Y027335D01*
X046193Y027377D01*
X046136Y027423D01*
X046082Y027472D01*
X046030Y027524D01*
X045981Y027578D01*
X045935Y027635D01*
X045893Y027694D01*
X045853Y027756D01*
X045817Y027820D01*
X045785Y027885D01*
X045756Y027952D01*
X045731Y028021D01*
X045709Y028091D01*
X045692Y028162D01*
X045678Y028234D01*
X045668Y028306D01*
X045662Y028379D01*
X045660Y028452D01*
D16*
X028559Y022564D02*
X028559Y022264D01*
X028559Y022414D02*
X028108Y022414D01*
X028258Y022264D01*
X028559Y022103D02*
X028559Y021803D01*
X028108Y021803D01*
X028183Y018233D02*
X028108Y018158D01*
X028108Y018008D01*
X028183Y017933D01*
X028183Y018233D02*
X028258Y018233D01*
X028559Y017933D01*
X028559Y018233D01*
X028559Y017773D02*
X028559Y017472D01*
X028108Y017472D01*
X018103Y009305D02*
X018103Y008855D01*
X017953Y008855D02*
X018253Y008855D01*
X017953Y009155D02*
X018103Y009305D01*
X017793Y009230D02*
X017793Y009080D01*
X017718Y009005D01*
X017493Y009005D01*
X017493Y008855D02*
X017493Y009305D01*
X017718Y009305D01*
X017793Y009230D01*
X017333Y009305D02*
X017182Y009305D01*
X017258Y009305D02*
X017258Y008930D01*
X017182Y008855D01*
X017107Y008855D01*
X017032Y008930D01*
X028634Y007200D02*
X028934Y006750D01*
X029094Y006750D02*
X029394Y006750D01*
X029244Y006750D02*
X029244Y007200D01*
X029094Y007050D01*
X028934Y007200D02*
X028634Y006750D01*
X041407Y009055D02*
X041482Y008980D01*
X041557Y008980D01*
X041633Y009055D01*
X041633Y009430D01*
X041708Y009430D02*
X041557Y009430D01*
X041868Y009430D02*
X042093Y009430D01*
X042168Y009355D01*
X042168Y009205D01*
X042093Y009130D01*
X041868Y009130D01*
X041868Y008980D02*
X041868Y009430D01*
X042328Y009355D02*
X042403Y009430D01*
X042553Y009430D01*
X042628Y009355D01*
X042628Y009280D01*
X042328Y008980D01*
X042628Y008980D01*
D17*
X046380Y008767D02*
X046382Y008817D01*
X046388Y008867D01*
X046398Y008916D01*
X046412Y008964D01*
X046429Y009011D01*
X046450Y009056D01*
X046475Y009100D01*
X046503Y009141D01*
X046535Y009180D01*
X046569Y009217D01*
X046606Y009251D01*
X046646Y009281D01*
X046688Y009308D01*
X046732Y009332D01*
X046778Y009353D01*
X046825Y009369D01*
X046873Y009382D01*
X046923Y009391D01*
X046972Y009396D01*
X047023Y009397D01*
X047073Y009394D01*
X047122Y009387D01*
X047171Y009376D01*
X047219Y009361D01*
X047265Y009343D01*
X047310Y009321D01*
X047353Y009295D01*
X047394Y009266D01*
X047433Y009234D01*
X047469Y009199D01*
X047501Y009161D01*
X047531Y009121D01*
X047558Y009078D01*
X047581Y009034D01*
X047600Y008988D01*
X047616Y008940D01*
X047628Y008891D01*
X047636Y008842D01*
X047640Y008792D01*
X047640Y008742D01*
X047636Y008692D01*
X047628Y008643D01*
X047616Y008594D01*
X047600Y008546D01*
X047581Y008500D01*
X047558Y008456D01*
X047531Y008413D01*
X047501Y008373D01*
X047469Y008335D01*
X047433Y008300D01*
X047394Y008268D01*
X047353Y008239D01*
X047310Y008213D01*
X047265Y008191D01*
X047219Y008173D01*
X047171Y008158D01*
X047122Y008147D01*
X047073Y008140D01*
X047023Y008137D01*
X046972Y008138D01*
X046923Y008143D01*
X046873Y008152D01*
X046825Y008165D01*
X046778Y008181D01*
X046732Y008202D01*
X046688Y008226D01*
X046646Y008253D01*
X046606Y008283D01*
X046569Y008317D01*
X046535Y008354D01*
X046503Y008393D01*
X046475Y008434D01*
X046450Y008478D01*
X046429Y008523D01*
X046412Y008570D01*
X046398Y008618D01*
X046388Y008667D01*
X046382Y008717D01*
X046380Y008767D01*
X046380Y028452D02*
X046382Y028502D01*
X046388Y028552D01*
X046398Y028601D01*
X046412Y028649D01*
X046429Y028696D01*
X046450Y028741D01*
X046475Y028785D01*
X046503Y028826D01*
X046535Y028865D01*
X046569Y028902D01*
X046606Y028936D01*
X046646Y028966D01*
X046688Y028993D01*
X046732Y029017D01*
X046778Y029038D01*
X046825Y029054D01*
X046873Y029067D01*
X046923Y029076D01*
X046972Y029081D01*
X047023Y029082D01*
X047073Y029079D01*
X047122Y029072D01*
X047171Y029061D01*
X047219Y029046D01*
X047265Y029028D01*
X047310Y029006D01*
X047353Y028980D01*
X047394Y028951D01*
X047433Y028919D01*
X047469Y028884D01*
X047501Y028846D01*
X047531Y028806D01*
X047558Y028763D01*
X047581Y028719D01*
X047600Y028673D01*
X047616Y028625D01*
X047628Y028576D01*
X047636Y028527D01*
X047640Y028477D01*
X047640Y028427D01*
X047636Y028377D01*
X047628Y028328D01*
X047616Y028279D01*
X047600Y028231D01*
X047581Y028185D01*
X047558Y028141D01*
X047531Y028098D01*
X047501Y028058D01*
X047469Y028020D01*
X047433Y027985D01*
X047394Y027953D01*
X047353Y027924D01*
X047310Y027898D01*
X047265Y027876D01*
X047219Y027858D01*
X047171Y027843D01*
X047122Y027832D01*
X047073Y027825D01*
X047023Y027822D01*
X046972Y027823D01*
X046923Y027828D01*
X046873Y027837D01*
X046825Y027850D01*
X046778Y027866D01*
X046732Y027887D01*
X046688Y027911D01*
X046646Y027938D01*
X046606Y027968D01*
X046569Y028002D01*
X046535Y028039D01*
X046503Y028078D01*
X046475Y028119D01*
X046450Y028163D01*
X046429Y028208D01*
X046412Y028255D01*
X046398Y028303D01*
X046388Y028352D01*
X046382Y028402D01*
X046380Y028452D01*
X010947Y028452D02*
X010949Y028502D01*
X010955Y028552D01*
X010965Y028601D01*
X010979Y028649D01*
X010996Y028696D01*
X011017Y028741D01*
X011042Y028785D01*
X011070Y028826D01*
X011102Y028865D01*
X011136Y028902D01*
X011173Y028936D01*
X011213Y028966D01*
X011255Y028993D01*
X011299Y029017D01*
X011345Y029038D01*
X011392Y029054D01*
X011440Y029067D01*
X011490Y029076D01*
X011539Y029081D01*
X011590Y029082D01*
X011640Y029079D01*
X011689Y029072D01*
X011738Y029061D01*
X011786Y029046D01*
X011832Y029028D01*
X011877Y029006D01*
X011920Y028980D01*
X011961Y028951D01*
X012000Y028919D01*
X012036Y028884D01*
X012068Y028846D01*
X012098Y028806D01*
X012125Y028763D01*
X012148Y028719D01*
X012167Y028673D01*
X012183Y028625D01*
X012195Y028576D01*
X012203Y028527D01*
X012207Y028477D01*
X012207Y028427D01*
X012203Y028377D01*
X012195Y028328D01*
X012183Y028279D01*
X012167Y028231D01*
X012148Y028185D01*
X012125Y028141D01*
X012098Y028098D01*
X012068Y028058D01*
X012036Y028020D01*
X012000Y027985D01*
X011961Y027953D01*
X011920Y027924D01*
X011877Y027898D01*
X011832Y027876D01*
X011786Y027858D01*
X011738Y027843D01*
X011689Y027832D01*
X011640Y027825D01*
X011590Y027822D01*
X011539Y027823D01*
X011490Y027828D01*
X011440Y027837D01*
X011392Y027850D01*
X011345Y027866D01*
X011299Y027887D01*
X011255Y027911D01*
X011213Y027938D01*
X011173Y027968D01*
X011136Y028002D01*
X011102Y028039D01*
X011070Y028078D01*
X011042Y028119D01*
X011017Y028163D01*
X010996Y028208D01*
X010979Y028255D01*
X010965Y028303D01*
X010955Y028352D01*
X010949Y028402D01*
X010947Y028452D01*
X010947Y008767D02*
X010949Y008817D01*
X010955Y008867D01*
X010965Y008916D01*
X010979Y008964D01*
X010996Y009011D01*
X011017Y009056D01*
X011042Y009100D01*
X011070Y009141D01*
X011102Y009180D01*
X011136Y009217D01*
X011173Y009251D01*
X011213Y009281D01*
X011255Y009308D01*
X011299Y009332D01*
X011345Y009353D01*
X011392Y009369D01*
X011440Y009382D01*
X011490Y009391D01*
X011539Y009396D01*
X011590Y009397D01*
X011640Y009394D01*
X011689Y009387D01*
X011738Y009376D01*
X011786Y009361D01*
X011832Y009343D01*
X011877Y009321D01*
X011920Y009295D01*
X011961Y009266D01*
X012000Y009234D01*
X012036Y009199D01*
X012068Y009161D01*
X012098Y009121D01*
X012125Y009078D01*
X012148Y009034D01*
X012167Y008988D01*
X012183Y008940D01*
X012195Y008891D01*
X012203Y008842D01*
X012207Y008792D01*
X012207Y008742D01*
X012203Y008692D01*
X012195Y008643D01*
X012183Y008594D01*
X012167Y008546D01*
X012148Y008500D01*
X012125Y008456D01*
X012098Y008413D01*
X012068Y008373D01*
X012036Y008335D01*
X012000Y008300D01*
X011961Y008268D01*
X011920Y008239D01*
X011877Y008213D01*
X011832Y008191D01*
X011786Y008173D01*
X011738Y008158D01*
X011689Y008147D01*
X011640Y008140D01*
X011590Y008137D01*
X011539Y008138D01*
X011490Y008143D01*
X011440Y008152D01*
X011392Y008165D01*
X011345Y008181D01*
X011299Y008202D01*
X011255Y008226D01*
X011213Y008253D01*
X011173Y008283D01*
X011136Y008317D01*
X011102Y008354D01*
X011070Y008393D01*
X011042Y008434D01*
X011017Y008478D01*
X010996Y008523D01*
X010979Y008570D01*
X010965Y008618D01*
X010955Y008667D01*
X010949Y008717D01*
X010947Y008767D01*
M02*
